<svg width="346" height="208" viewBox="0 0 346 208" fill="none" xmlns="http://www.w3.org/2000/svg">
<path d="M256 89.5V54C256 52.3431 257.343 51 259 51H294.5C296.157 51 297.5 52.3431 297.5 54V89.5C297.5 91.1569 296.157 92.5 294.5 92.5H259C257.343 92.5 256 91.1569 256 89.5Z" fill="#FF414D"/>
<path d="M206 48V4C206 2.34315 207.343 1 209 1H244C245.657 1 247 2.34315 247 4V139.5C247 141.157 245.657 142.5 244 142.5H209C207.343 142.5 206 141.157 206 139.5V95.5C206 93.8431 204.657 92.5 203 92.5H158.5C156.843 92.5 155.5 91.1569 155.5 89.5V54C155.5 52.3431 156.843 51 158.5 51H203C204.657 51 206 49.6569 206 48Z" fill="#FF414D"/>
<path d="M148 0.5H103.093C102.097 0.5 101.166 0.994498 100.608 1.81978L8.66409 137.82C7.31718 139.812 8.74453 142.5 11.1494 142.5H51.9145C52.9065 142.5 53.8343 142.01 54.3932 141.19L60.1068 132.81C60.6657 131.99 61.5935 131.5 62.5855 131.5H98C99.6569 131.5 101 130.157 101 128.5V97.5C101 95.8431 99.6569 94.5 98 94.5H91.2415C88.8184 94.5 87.395 91.7759 88.7787 89.7868L104.037 67.8527C105.715 65.4411 109.5 66.6282 109.5 69.5658V139.5C109.5 141.157 110.843 142.5 112.5 142.5H148C149.657 142.5 151 141.157 151 139.5V3.5C151 1.84315 149.657 0.5 148 0.5Z" fill="#0047FF"/>
<path d="M19.88 175.68H8.76L6.92 181H1.04L11.08 153.04H17.6L27.64 181H21.72L19.88 175.68ZM18.36 171.2L14.32 159.52L10.28 171.2H18.36ZM54.5256 162.08C55.2456 161.013 56.2323 160.147 57.4856 159.48C58.7656 158.813 60.219 158.48 61.8456 158.48C63.739 158.48 65.4456 158.947 66.9656 159.88C68.5123 160.813 69.7256 162.147 70.6056 163.88C71.5123 165.587 71.9656 167.573 71.9656 169.84C71.9656 172.107 71.5123 174.12 70.6056 175.88C69.7256 177.613 68.5123 178.96 66.9656 179.92C65.4456 180.88 63.739 181.36 61.8456 181.36C60.1923 181.36 58.739 181.04 57.4856 180.4C56.259 179.733 55.2723 178.88 54.5256 177.84V181H48.9256V151.4H54.5256V162.08ZM66.2456 169.84C66.2456 168.507 65.9656 167.36 65.4056 166.4C64.8723 165.413 64.1523 164.667 63.2456 164.16C62.3656 163.653 61.4056 163.4 60.3656 163.4C59.3523 163.4 58.3923 163.667 57.4856 164.2C56.6056 164.707 55.8856 165.453 55.3256 166.44C54.7923 167.427 54.5256 168.587 54.5256 169.92C54.5256 171.253 54.7923 172.413 55.3256 173.4C55.8856 174.387 56.6056 175.147 57.4856 175.68C58.3923 176.187 59.3523 176.44 60.3656 176.44C61.4056 176.44 62.3656 176.173 63.2456 175.64C64.1523 175.107 64.8723 174.347 65.4056 173.36C65.9656 172.373 66.2456 171.2 66.2456 169.84ZM77.795 169.84C77.795 167.6 78.235 165.613 79.115 163.88C80.0217 162.147 81.235 160.813 82.755 159.88C84.3017 158.947 86.0217 158.48 87.915 158.48C89.5683 158.48 91.0083 158.813 92.235 159.48C93.4883 160.147 94.4883 160.987 95.235 162V158.84H100.875V181H95.235V177.76C94.515 178.8 93.515 179.667 92.235 180.36C90.9817 181.027 89.5283 181.36 87.875 181.36C86.0083 181.36 84.3017 180.88 82.755 179.92C81.235 178.96 80.0217 177.613 79.115 175.88C78.235 174.12 77.795 172.107 77.795 169.84ZM95.235 169.92C95.235 168.56 94.9683 167.4 94.435 166.44C93.9017 165.453 93.1817 164.707 92.275 164.2C91.3683 163.667 90.395 163.4 89.355 163.4C88.315 163.4 87.355 163.653 86.475 164.16C85.595 164.667 84.875 165.413 84.315 166.4C83.7817 167.36 83.515 168.507 83.515 169.84C83.515 171.173 83.7817 172.347 84.315 173.36C84.875 174.347 85.595 175.107 86.475 175.64C87.3817 176.173 88.3417 176.44 89.355 176.44C90.395 176.44 91.3683 176.187 92.275 175.68C93.1817 175.147 93.9017 174.4 94.435 173.44C94.9683 172.453 95.235 171.28 95.235 169.92Z" fill="white"/>
<path d="M40.1928 151.4V181H34.5928V151.4H40.1928Z" fill="#FF414D"/>
<path d="M140.92 153.08V181H135.32V169.12H123.36V181H117.76V153.08H123.36V164.56H135.32V153.08H140.92ZM186.82 181.36C185.006 181.36 183.38 181.04 181.94 180.4C180.5 179.733 179.353 178.84 178.5 177.72C177.673 176.6 177.22 175.36 177.14 174H182.78C182.886 174.853 183.3 175.56 184.02 176.12C184.766 176.68 185.686 176.96 186.78 176.96C187.846 176.96 188.673 176.747 189.26 176.32C189.873 175.893 190.18 175.347 190.18 174.68C190.18 173.96 189.806 173.427 189.06 173.08C188.34 172.707 187.18 172.307 185.58 171.88C183.926 171.48 182.566 171.067 181.5 170.64C180.46 170.213 179.553 169.56 178.78 168.68C178.033 167.8 177.66 166.613 177.66 165.12C177.66 163.893 178.006 162.773 178.7 161.76C179.42 160.747 180.433 159.947 181.74 159.36C183.073 158.773 184.633 158.48 186.42 158.48C189.06 158.48 191.166 159.147 192.74 160.48C194.313 161.787 195.18 163.56 195.34 165.8H189.98C189.9 164.92 189.526 164.227 188.86 163.72C188.22 163.187 187.353 162.92 186.26 162.92C185.246 162.92 184.46 163.107 183.9 163.48C183.366 163.853 183.1 164.373 183.1 165.04C183.1 165.787 183.473 166.36 184.22 166.76C184.966 167.133 186.126 167.52 187.7 167.92C189.3 168.32 190.62 168.733 191.66 169.16C192.7 169.587 193.593 170.253 194.34 171.16C195.113 172.04 195.513 173.213 195.54 174.68C195.54 175.96 195.18 177.107 194.46 178.12C193.766 179.133 192.753 179.933 191.42 180.52C190.113 181.08 188.58 181.36 186.82 181.36ZM208.937 162.04C209.657 161.027 210.643 160.187 211.897 159.52C213.177 158.827 214.63 158.48 216.257 158.48C218.15 158.48 219.857 158.947 221.377 159.88C222.923 160.813 224.137 162.147 225.017 163.88C225.923 165.587 226.377 167.573 226.377 169.84C226.377 172.107 225.923 174.12 225.017 175.88C224.137 177.613 222.923 178.96 221.377 179.92C219.857 180.88 218.15 181.36 216.257 181.36C214.63 181.36 213.19 181.027 211.937 180.36C210.71 179.693 209.71 178.853 208.937 177.84V191.56H203.337V158.84H208.937V162.04ZM220.657 169.84C220.657 168.507 220.377 167.36 219.817 166.4C219.283 165.413 218.563 164.667 217.657 164.16C216.777 163.653 215.817 163.4 214.777 163.4C213.763 163.4 212.803 163.667 211.897 164.2C211.017 164.707 210.297 165.453 209.737 166.44C209.203 167.427 208.937 168.587 208.937 169.92C208.937 171.253 209.203 172.413 209.737 173.4C210.297 174.387 211.017 175.147 211.897 175.68C212.803 176.187 213.763 176.44 214.777 176.44C215.817 176.44 216.777 176.173 217.657 175.64C218.563 175.107 219.283 174.347 219.817 173.36C220.377 172.373 220.657 171.2 220.657 169.84ZM236.486 156.2C235.499 156.2 234.673 155.893 234.006 155.28C233.366 154.64 233.046 153.853 233.046 152.92C233.046 151.987 233.366 151.213 234.006 150.6C234.673 149.96 235.499 149.64 236.486 149.64C237.473 149.64 238.286 149.96 238.926 150.6C239.593 151.213 239.926 151.987 239.926 152.92C239.926 153.853 239.593 154.64 238.926 155.28C238.286 155.893 237.473 156.2 236.486 156.2ZM239.246 158.84V181H233.646V158.84H239.246ZM254.499 163.44V174.16C254.499 174.907 254.672 175.453 255.019 175.8C255.392 176.12 256.005 176.28 256.859 176.28H259.459V181H255.939C251.219 181 248.859 178.707 248.859 174.12V163.44H246.219V158.84H248.859V153.36H254.499V158.84H259.459V163.44H254.499ZM265.247 169.84C265.247 167.6 265.687 165.613 266.567 163.88C267.473 162.147 268.687 160.813 270.207 159.88C271.753 158.947 273.473 158.48 275.367 158.48C277.02 158.48 278.46 158.813 279.687 159.48C280.94 160.147 281.94 160.987 282.687 162V158.84H288.327V181H282.687V177.76C281.967 178.8 280.967 179.667 279.687 180.36C278.433 181.027 276.98 181.36 275.327 181.36C273.46 181.36 271.753 180.88 270.207 179.92C268.687 178.96 267.473 177.613 266.567 175.88C265.687 174.12 265.247 172.107 265.247 169.84ZM282.687 169.92C282.687 168.56 282.42 167.4 281.887 166.44C281.353 165.453 280.633 164.707 279.727 164.2C278.82 163.667 277.847 163.4 276.807 163.4C275.767 163.4 274.807 163.653 273.927 164.16C273.047 164.667 272.327 165.413 271.767 166.4C271.233 167.36 270.967 168.507 270.967 169.84C270.967 171.173 271.233 172.347 271.767 173.36C272.327 174.347 273.047 175.107 273.927 175.64C274.833 176.173 275.793 176.44 276.807 176.44C277.847 176.44 278.82 176.187 279.727 175.68C280.633 175.147 281.353 174.4 281.887 173.44C282.42 172.453 282.687 171.28 282.687 169.92ZM302.596 151.4V181H296.996V151.4H302.596Z" fill="white"/>
<path d="M159.472 181.36C157.339 181.36 155.419 180.893 153.712 179.96C152.005 179 150.659 177.653 149.672 175.92C148.712 174.187 148.232 172.187 148.232 169.92C148.232 167.653 148.725 165.653 149.712 163.92C150.725 162.187 152.099 160.853 153.832 159.92C155.565 158.96 157.499 158.48 159.632 158.48C161.765 158.48 163.699 158.96 165.432 159.92C167.165 160.853 168.525 162.187 169.512 163.92C170.525 165.653 171.032 167.653 171.032 169.92C171.032 172.187 170.512 174.187 169.472 175.92C168.459 177.653 167.072 179 165.312 179.96C163.579 180.893 161.632 181.36 159.472 181.36ZM159.472 176.48C160.485 176.48 161.432 176.24 162.312 175.76C163.219 175.253 163.939 174.507 164.472 173.52C165.005 172.533 165.272 171.333 165.272 169.92C165.272 167.813 164.712 166.2 163.592 165.08C162.499 163.933 161.152 163.36 159.552 163.36C157.952 163.36 156.605 163.933 155.512 165.08C154.445 166.2 153.912 167.813 153.912 169.92C153.912 172.027 154.432 173.653 155.472 174.8C156.539 175.92 157.872 176.48 159.472 176.48Z" fill="#FF414D"/>
</svg>
