<svg width="541" height="169" viewBox="0 0 541 169" fill="none" xmlns="http://www.w3.org/2000/svg">
<g filter="url(#filter0_d_83_2)">
<path d="M252.5 89V53.5C252.5 51.8431 253.843 50.5 255.5 50.5H291C292.657 50.5 294 51.8431 294 53.5V89C294 90.6569 292.657 92 291 92H255.5C253.843 92 252.5 90.6569 252.5 89Z" fill="#CE0002"/>
<path d="M253 89V53.5C253 52.1193 254.119 51 255.5 51H291C292.381 51 293.5 52.1193 293.5 53.5V89C293.5 90.3807 292.381 91.5 291 91.5H255.5C254.119 91.5 253 90.3807 253 89Z" stroke="white"/>
</g>
<g filter="url(#filter1_d_83_2)">
<path d="M202.5 47.5V3.5C202.5 1.84315 203.843 0.5 205.5 0.5H240.5C242.157 0.5 243.5 1.84315 243.5 3.5V139C243.5 140.657 242.157 142 240.5 142H205.5C203.843 142 202.5 140.657 202.5 139V95C202.5 93.3431 201.157 92 199.5 92H155C153.343 92 152 90.6569 152 89V53.5C152 51.8431 153.343 50.5 155 50.5H199.5C201.157 50.5 202.5 49.1569 202.5 47.5Z" fill="url(#paint0_linear_83_2)"/>
<path d="M203 47.5V3.5C203 2.11929 204.119 1 205.5 1H240.5C241.881 1 243 2.11929 243 3.5V139C243 140.381 241.881 141.5 240.5 141.5H205.5C204.119 141.5 203 140.381 203 139V95C203 93.067 201.433 91.5 199.5 91.5H155C153.619 91.5 152.5 90.3807 152.5 89V53.5C152.5 52.1193 153.619 51 155 51H199.5C201.433 51 203 49.433 203 47.5Z" stroke="white"/>
</g>
<g filter="url(#filter2_d_83_2)">
<path d="M144.5 0H99.5931C98.5969 0 97.6657 0.494498 97.1078 1.31978L5.16409 137.32C3.81718 139.312 5.24453 142 7.64942 142H48.4145C49.4065 142 50.3343 141.51 50.8932 140.69L56.6068 132.31C57.1657 131.49 58.0935 131 59.0855 131H94.5C96.1569 131 97.5 129.657 97.5 128V97C97.5 95.3431 96.1569 94 94.5 94H87.7415C85.3184 94 83.895 91.2759 85.2787 89.2868L100.537 67.3527C102.215 64.9411 106 66.1282 106 69.0658V139C106 140.657 107.343 142 109 142H144.5C146.157 142 147.5 140.657 147.5 139V3C147.5 1.34315 146.157 0 144.5 0Z" fill="#0178F9"/>
<path d="M99.5931 0.5H144.5C145.881 0.5 147 1.61929 147 3V139C147 140.381 145.881 141.5 144.5 141.5H109C107.619 141.5 106.5 140.381 106.5 139V69.0658C106.5 65.6386 102.084 64.2537 100.127 67.0671L84.8683 89.0013C83.2539 91.3219 84.9145 94.5 87.7415 94.5H94.5C95.8807 94.5 97 95.6193 97 97V128C97 129.381 95.8807 130.5 94.5 130.5H59.0855C57.9282 130.5 56.8457 131.072 56.1937 132.028L50.4801 140.408C50.0144 141.091 49.2412 141.5 48.4145 141.5H7.64942C5.64535 141.5 4.45589 139.26 5.57831 137.6L97.522 1.59982C97.9869 0.912081 98.7629 0.5 99.5931 0.5Z" stroke="white"/>
</g>
<mask id="path-7-outside-1_83_2" maskUnits="userSpaceOnUse" x="309" y="48" width="103" height="33" fill="black">
<rect fill="white" x="309" y="48" width="103" height="33"/>
<path d="M329.88 73.68H318.76L316.92 79H311.04L321.08 51.04H327.6L337.64 79H331.72L329.88 73.68ZM328.36 69.2L324.32 57.52L320.28 69.2H328.36ZM364.526 60.08C365.246 59.0133 366.232 58.1467 367.486 57.48C368.766 56.8133 370.219 56.48 371.846 56.48C373.739 56.48 375.446 56.9467 376.966 57.88C378.512 58.8133 379.726 60.1467 380.606 61.88C381.512 63.5867 381.966 65.5733 381.966 67.84C381.966 70.1067 381.512 72.12 380.606 73.88C379.726 75.6133 378.512 76.96 376.966 77.92C375.446 78.88 373.739 79.36 371.846 79.36C370.192 79.36 368.739 79.04 367.486 78.4C366.259 77.7333 365.272 76.88 364.526 75.84V79H358.926V49.4H364.526V60.08ZM376.246 67.84C376.246 66.5067 375.966 65.36 375.406 64.4C374.872 63.4133 374.152 62.6667 373.246 62.16C372.366 61.6533 371.406 61.4 370.366 61.4C369.352 61.4 368.392 61.6667 367.486 62.2C366.606 62.7067 365.886 63.4533 365.326 64.44C364.792 65.4267 364.526 66.5867 364.526 67.92C364.526 69.2533 364.792 70.4133 365.326 71.4C365.886 72.3867 366.606 73.1467 367.486 73.68C368.392 74.1867 369.352 74.44 370.366 74.44C371.406 74.44 372.366 74.1733 373.246 73.64C374.152 73.1067 374.872 72.3467 375.406 71.36C375.966 70.3733 376.246 69.2 376.246 67.84ZM387.795 67.84C387.795 65.6 388.235 63.6133 389.115 61.88C390.022 60.1467 391.235 58.8133 392.755 57.88C394.302 56.9467 396.022 56.48 397.915 56.48C399.568 56.48 401.008 56.8133 402.235 57.48C403.488 58.1467 404.488 58.9867 405.235 60V56.84H410.875V79H405.235V75.76C404.515 76.8 403.515 77.6667 402.235 78.36C400.982 79.0267 399.528 79.36 397.875 79.36C396.008 79.36 394.302 78.88 392.755 77.92C391.235 76.96 390.022 75.6133 389.115 73.88C388.235 72.12 387.795 70.1067 387.795 67.84ZM405.235 67.92C405.235 66.56 404.968 65.4 404.435 64.44C403.902 63.4533 403.182 62.7067 402.275 62.2C401.368 61.6667 400.395 61.4 399.355 61.4C398.315 61.4 397.355 61.6533 396.475 62.16C395.595 62.6667 394.875 63.4133 394.315 64.4C393.782 65.36 393.515 66.5067 393.515 67.84C393.515 69.1733 393.782 70.3467 394.315 71.36C394.875 72.3467 395.595 73.1067 396.475 73.64C397.382 74.1733 398.342 74.44 399.355 74.44C400.395 74.44 401.368 74.1867 402.275 73.68C403.182 73.1467 403.902 72.4 404.435 71.44C404.968 70.4533 405.235 69.28 405.235 67.92Z"/>
<path d="M350.193 49.4V79H344.593V49.4H350.193Z"/>
</mask>
<path d="M329.88 73.68H318.76L316.92 79H311.04L321.08 51.04H327.6L337.64 79H331.72L329.88 73.68ZM328.36 69.2L324.32 57.52L320.28 69.2H328.36ZM364.526 60.08C365.246 59.0133 366.232 58.1467 367.486 57.48C368.766 56.8133 370.219 56.48 371.846 56.48C373.739 56.48 375.446 56.9467 376.966 57.88C378.512 58.8133 379.726 60.1467 380.606 61.88C381.512 63.5867 381.966 65.5733 381.966 67.84C381.966 70.1067 381.512 72.12 380.606 73.88C379.726 75.6133 378.512 76.96 376.966 77.92C375.446 78.88 373.739 79.36 371.846 79.36C370.192 79.36 368.739 79.04 367.486 78.4C366.259 77.7333 365.272 76.88 364.526 75.84V79H358.926V49.4H364.526V60.08ZM376.246 67.84C376.246 66.5067 375.966 65.36 375.406 64.4C374.872 63.4133 374.152 62.6667 373.246 62.16C372.366 61.6533 371.406 61.4 370.366 61.4C369.352 61.4 368.392 61.6667 367.486 62.2C366.606 62.7067 365.886 63.4533 365.326 64.44C364.792 65.4267 364.526 66.5867 364.526 67.92C364.526 69.2533 364.792 70.4133 365.326 71.4C365.886 72.3867 366.606 73.1467 367.486 73.68C368.392 74.1867 369.352 74.44 370.366 74.44C371.406 74.44 372.366 74.1733 373.246 73.64C374.152 73.1067 374.872 72.3467 375.406 71.36C375.966 70.3733 376.246 69.2 376.246 67.84ZM387.795 67.84C387.795 65.6 388.235 63.6133 389.115 61.88C390.022 60.1467 391.235 58.8133 392.755 57.88C394.302 56.9467 396.022 56.48 397.915 56.48C399.568 56.48 401.008 56.8133 402.235 57.48C403.488 58.1467 404.488 58.9867 405.235 60V56.84H410.875V79H405.235V75.76C404.515 76.8 403.515 77.6667 402.235 78.36C400.982 79.0267 399.528 79.36 397.875 79.36C396.008 79.36 394.302 78.88 392.755 77.92C391.235 76.96 390.022 75.6133 389.115 73.88C388.235 72.12 387.795 70.1067 387.795 67.84ZM405.235 67.92C405.235 66.56 404.968 65.4 404.435 64.44C403.902 63.4533 403.182 62.7067 402.275 62.2C401.368 61.6667 400.395 61.4 399.355 61.4C398.315 61.4 397.355 61.6533 396.475 62.16C395.595 62.6667 394.875 63.4133 394.315 64.4C393.782 65.36 393.515 66.5067 393.515 67.84C393.515 69.1733 393.782 70.3467 394.315 71.36C394.875 72.3467 395.595 73.1067 396.475 73.64C397.382 74.1733 398.342 74.44 399.355 74.44C400.395 74.44 401.368 74.1867 402.275 73.68C403.182 73.1467 403.902 72.4 404.435 71.44C404.968 70.4533 405.235 69.28 405.235 67.92Z" fill="black"/>
<path d="M350.193 49.4V79H344.593V49.4H350.193Z" fill="#CD0104"/>
<path d="M329.88 73.68L330.825 73.3531L330.592 72.68H329.88V73.68ZM318.76 73.68V72.68H318.048L317.815 73.3531L318.76 73.68ZM316.92 79V80H317.632L317.865 79.3269L316.92 79ZM311.04 79L310.099 78.662L309.618 80H311.04V79ZM321.08 51.04V50.04H320.377L320.139 50.702L321.08 51.04ZM327.6 51.04L328.541 50.702L328.303 50.04H327.6V51.04ZM337.64 79V80H339.062L338.581 78.662L337.64 79ZM331.72 79L330.775 79.3269L331.008 80H331.72V79ZM328.36 69.2V70.2H329.764L329.305 68.8731L328.36 69.2ZM324.32 57.52L325.265 57.1931L324.32 54.4609L323.375 57.1931L324.32 57.52ZM320.28 69.2L319.335 68.8731L318.876 70.2H320.28V69.2ZM329.88 72.68H318.76V74.68H329.88V72.68ZM317.815 73.3531L315.975 78.6731L317.865 79.3269L319.705 74.0069L317.815 73.3531ZM316.92 78H311.04V80H316.92V78ZM311.981 79.338L322.021 51.378L320.139 50.702L310.099 78.662L311.981 79.338ZM321.08 52.04H327.6V50.04H321.08V52.04ZM326.659 51.378L336.699 79.338L338.581 78.662L328.541 50.702L326.659 51.378ZM337.64 78H331.72V80H337.64V78ZM332.665 78.6731L330.825 73.3531L328.935 74.0069L330.775 79.3269L332.665 78.6731ZM329.305 68.8731L325.265 57.1931L323.375 57.8469L327.415 69.5269L329.305 68.8731ZM323.375 57.1931L319.335 68.8731L321.225 69.5269L325.265 57.8469L323.375 57.1931ZM320.28 70.2H328.36V68.2H320.28V70.2ZM350.193 49.4H351.193V48.4H350.193V49.4ZM350.193 79V80H351.193V79H350.193ZM344.593 79H343.593V80H344.593V79ZM344.593 49.4V48.4H343.593V49.4H344.593ZM349.193 49.4V79H351.193V49.4H349.193ZM350.193 78H344.593V80H350.193V78ZM345.593 79V49.4H343.593V79H345.593ZM344.593 50.4H350.193V48.4H344.593V50.4ZM364.526 60.08H363.526V63.3489L365.354 60.6395L364.526 60.08ZM367.486 57.48L367.024 56.5931L367.016 56.5971L367.486 57.48ZM376.966 57.88L376.442 58.7322L376.449 58.7362L376.966 57.88ZM380.606 61.88L379.714 62.3327L379.718 62.341L379.723 62.3492L380.606 61.88ZM380.606 73.88L379.717 73.422L379.714 73.4273L380.606 73.88ZM376.966 77.92L376.438 77.0703L376.432 77.0745L376.966 77.92ZM367.486 78.4L367.008 79.2786L367.019 79.2848L367.031 79.2906L367.486 78.4ZM364.526 75.84L365.338 75.2568L363.526 72.7325V75.84H364.526ZM364.526 79V80H365.526V79H364.526ZM358.926 79H357.926V80H358.926V79ZM358.926 49.4V48.4H357.926V49.4H358.926ZM364.526 49.4H365.526V48.4H364.526V49.4ZM375.406 64.4L374.526 64.8755L374.534 64.8898L374.542 64.9039L375.406 64.4ZM373.246 62.16L372.747 63.0267L372.758 63.0329L373.246 62.16ZM367.486 62.2L367.985 63.0667L367.993 63.0619L367.486 62.2ZM365.326 64.44L364.456 63.9464L364.451 63.9554L364.446 63.9645L365.326 64.44ZM365.326 71.4L364.446 71.8755L364.451 71.8846L364.456 71.8936L365.326 71.4ZM367.486 73.68L366.967 74.5352L366.982 74.5443L366.998 74.5529L367.486 73.68ZM373.246 73.64L372.739 72.778L372.727 72.7848L373.246 73.64ZM375.406 71.36L374.536 70.8664L374.531 70.8754L374.526 70.8845L375.406 71.36ZM365.354 60.6395C365.974 59.7219 366.831 58.9608 367.955 58.3629L367.016 56.5971C365.633 57.3325 364.517 58.3047 363.697 59.5205L365.354 60.6395ZM367.948 58.3669C369.068 57.7835 370.359 57.48 371.846 57.48V55.48C370.079 55.48 368.464 55.8431 367.024 56.5931L367.948 58.3669ZM371.846 57.48C373.566 57.48 375.09 57.9015 376.442 58.7322L377.489 57.0278C375.802 55.9918 373.912 55.48 371.846 55.48V57.48ZM376.449 58.7362C377.823 59.5654 378.912 60.7531 379.714 62.3327L381.497 61.4273C380.539 59.5402 379.202 58.0613 377.482 57.0238L376.449 58.7362ZM379.723 62.3492C380.54 63.8883 380.966 65.7086 380.966 67.84H382.966C382.966 65.4381 382.484 63.2851 381.489 61.4108L379.723 62.3492ZM380.966 67.84C380.966 69.9706 380.54 71.823 379.717 73.422L381.495 74.338C382.484 72.417 382.966 70.2428 382.966 67.84H380.966ZM379.714 73.4273C378.911 75.009 377.819 76.2134 376.438 77.0704L377.493 78.7696C379.206 77.7066 380.54 76.2177 381.497 74.3327L379.714 73.4273ZM376.432 77.0745C375.08 77.9281 373.56 78.36 371.846 78.36V80.36C373.917 80.36 375.811 79.8319 377.5 78.7655L376.432 77.0745ZM371.846 78.36C370.323 78.36 369.03 78.0659 367.94 77.5094L367.031 79.2906C368.448 80.0141 370.062 80.36 371.846 80.36V78.36ZM367.963 77.5214C366.857 76.9201 365.989 76.1636 365.338 75.2568L363.713 76.4232C364.556 77.5964 365.661 78.5466 367.008 79.2786L367.963 77.5214ZM363.526 75.84V79H365.526V75.84H363.526ZM364.526 78H358.926V80H364.526V78ZM359.926 79V49.4H357.926V79H359.926ZM358.926 50.4H364.526V48.4H358.926V50.4ZM363.526 49.4V60.08H365.526V49.4H363.526ZM377.246 67.84C377.246 66.365 376.935 65.037 376.269 63.8961L374.542 64.9039C374.996 65.683 375.246 66.6483 375.246 67.84H377.246ZM376.285 63.9245C375.669 62.7847 374.819 61.8937 373.733 61.2871L372.758 63.0329C373.486 63.4396 374.075 64.0419 374.526 64.8755L376.285 63.9245ZM373.745 61.2934C372.709 60.6971 371.576 60.4 370.366 60.4V62.4C371.235 62.4 372.022 62.6095 372.747 63.0266L373.745 61.2934ZM370.366 60.4C369.167 60.4 368.033 60.7179 366.979 61.3381L367.993 63.0619C368.752 62.6154 369.538 62.4 370.366 62.4V60.4ZM366.987 61.3334C365.934 61.9392 365.093 62.8232 364.456 63.9464L366.195 64.9336C366.678 64.0835 367.277 63.4741 367.985 63.0666L366.987 61.3334ZM364.446 63.9645C363.82 65.1225 363.526 66.4519 363.526 67.92H365.526C365.526 66.7214 365.765 65.7309 366.205 64.9155L364.446 63.9645ZM363.526 67.92C363.526 69.3881 363.82 70.7175 364.446 71.8755L366.205 70.9245C365.765 70.1091 365.526 69.1186 365.526 67.92H363.526ZM364.456 71.8936C365.091 73.0132 365.927 73.9045 366.967 74.5352L368.004 72.8248C367.285 72.3889 366.68 71.7601 366.195 70.9064L364.456 71.8936ZM366.998 74.5529C368.05 75.1408 369.177 75.44 370.366 75.44V73.44C369.527 73.44 368.735 73.2326 367.973 72.8071L366.998 74.5529ZM370.366 75.44C371.586 75.44 372.726 75.1243 373.764 74.4952L372.727 72.7848C372.005 73.2224 371.225 73.44 370.366 73.44V75.44ZM373.753 74.5019C374.827 73.87 375.671 72.9715 376.285 71.8355L374.526 70.8845C374.073 71.7218 373.478 72.3433 372.739 72.7781L373.753 74.5019ZM376.275 71.8536C376.936 70.6891 377.246 69.3386 377.246 67.84H375.246C375.246 69.0613 374.995 70.0575 374.536 70.8664L376.275 71.8536ZM389.115 61.88L388.229 61.4165L388.223 61.4273L389.115 61.88ZM392.755 57.88L392.238 57.0238L392.232 57.0278L392.755 57.88ZM402.235 57.48L401.757 58.3587L401.765 58.3629L402.235 57.48ZM405.235 60L404.43 60.5932L406.235 63.0429V60H405.235ZM405.235 56.84V55.84H404.235V56.84H405.235ZM410.875 56.84H411.875V55.84H410.875V56.84ZM410.875 79V80H411.875V79H410.875ZM405.235 79H404.235V80H405.235V79ZM405.235 75.76H406.235V72.5587L404.413 75.1908L405.235 75.76ZM402.235 78.36L402.705 79.2429L402.711 79.2393L402.235 78.36ZM392.755 77.92L392.221 78.7655L392.228 78.7696L392.755 77.92ZM389.115 73.88L388.221 74.3272L388.225 74.3354L388.229 74.3435L389.115 73.88ZM404.435 64.44L403.555 64.9155L403.561 64.9256L404.435 64.44ZM402.275 62.2L401.768 63.0619L401.778 63.0675L401.787 63.0729L402.275 62.2ZM396.475 62.16L395.976 61.2934L396.475 62.16ZM394.315 64.4L393.445 63.9064L393.441 63.9144L394.315 64.4ZM394.315 71.36L393.43 71.8257L393.437 71.8398L393.445 71.8536L394.315 71.36ZM396.475 73.64L395.957 74.4953L395.968 74.5019L396.475 73.64ZM402.275 73.68L402.763 74.5529L402.772 74.5475L402.782 74.5419L402.275 73.68ZM404.435 71.44L405.309 71.9257L405.315 71.9155L404.435 71.44ZM388.795 67.84C388.795 65.7333 389.208 63.9058 390.007 62.3327L388.223 61.4273C387.262 63.3209 386.795 65.4667 386.795 67.84H388.795ZM390.001 62.3435C390.832 60.7541 391.927 59.5621 393.278 58.7322L392.232 57.0278C390.543 58.0646 389.211 59.5392 388.229 61.4165L390.001 62.3435ZM393.272 58.7362C394.655 57.9016 396.195 57.48 397.915 57.48V55.48C395.849 55.48 393.949 55.9918 392.238 57.0238L393.272 58.7362ZM397.915 57.48C399.432 57.48 400.702 57.7851 401.757 58.3586L402.713 56.6014C401.314 55.8416 399.704 55.48 397.915 55.48V57.48ZM401.765 58.3629C402.904 58.9683 403.783 59.7149 404.43 60.5932L406.04 59.4068C405.194 58.2585 404.073 57.325 402.705 56.5971L401.765 58.3629ZM406.235 60V56.84H404.235V60H406.235ZM405.235 57.84H410.875V55.84H405.235V57.84ZM409.875 56.84V79H411.875V56.84H409.875ZM410.875 78H405.235V80H410.875V78ZM406.235 79V75.76H404.235V79H406.235ZM404.413 75.1908C403.795 76.0835 402.922 76.8508 401.759 77.4807L402.711 79.2393C404.108 78.4825 405.235 77.5165 406.057 76.3292L404.413 75.1908ZM401.765 77.4771C400.679 78.0551 399.392 78.36 397.875 78.36V80.36C399.665 80.36 401.285 79.9982 402.705 79.2429L401.765 77.4771ZM397.875 78.36C396.19 78.36 394.666 77.9295 393.282 77.0704L392.228 78.7696C393.937 79.8305 395.827 80.36 397.875 80.36V78.36ZM393.289 77.0745C391.931 76.2168 390.834 75.0079 390.001 73.4165L388.229 74.3435C389.21 76.2188 390.539 77.7032 392.221 78.7655L393.289 77.0745ZM390.009 73.4328C389.209 71.8313 388.795 69.9751 388.795 67.84H386.795C386.795 70.2383 387.261 72.4087 388.221 74.3272L390.009 73.4328ZM406.235 67.92C406.235 66.4301 405.942 65.0944 405.309 63.9544L403.561 64.9256C403.994 65.7056 404.235 66.6899 404.235 67.92H406.235ZM405.315 63.9645C404.699 62.8247 403.848 61.9337 402.763 61.3271L401.787 63.0729C402.515 63.4796 403.105 64.0819 403.555 64.9155L405.315 63.9645ZM402.782 61.3381C401.724 60.7154 400.575 60.4 399.355 60.4V62.4C400.215 62.4 401.013 62.6179 401.768 63.0619L402.782 61.3381ZM399.355 60.4C398.144 60.4 397.012 60.6971 395.976 61.2934L396.974 63.0266C397.698 62.6095 398.486 62.4 399.355 62.4V60.4ZM395.976 61.2934C394.924 61.8992 394.083 62.7832 393.445 63.9064L395.185 64.8936C395.667 64.0435 396.266 63.4341 396.974 63.0266L395.976 61.2934ZM393.441 63.9144C392.809 65.0516 392.515 66.3729 392.515 67.84H394.515C394.515 66.6404 394.754 65.6684 395.189 64.8856L393.441 63.9144ZM392.515 67.84C392.515 69.3089 392.81 70.6469 393.43 71.8257L395.2 70.8943C394.754 70.0465 394.515 69.0378 394.515 67.84H392.515ZM393.445 71.8536C394.081 72.9732 394.916 73.8645 395.957 74.4952L396.993 72.7848C396.274 72.3489 395.669 71.7201 395.185 70.8664L393.445 71.8536ZM395.968 74.5019C397.022 75.1221 398.156 75.44 399.355 75.44V73.44C398.527 73.44 397.741 73.2246 396.982 72.7781L395.968 74.5019ZM399.355 75.44C400.566 75.44 401.707 75.143 402.763 74.5529L401.787 72.8071C401.03 73.2303 400.224 73.44 399.355 73.44V75.44ZM402.782 74.5419C403.849 73.9141 404.693 73.0344 405.309 71.9256L403.561 70.9544C403.11 71.7656 402.514 72.3792 401.768 72.8181L402.782 74.5419ZM405.315 71.9155C405.942 70.7548 406.235 69.411 406.235 67.92H404.235C404.235 69.149 403.995 70.1519 403.555 70.9645L405.315 71.9155Z" fill="white" mask="url(#path-7-outside-1_83_2)"/>
<mask id="path-9-outside-2_83_2" maskUnits="userSpaceOnUse" x="311" y="109" width="188" height="45" fill="black">
<rect fill="white" x="311" y="109" width="188" height="45"/>
<path d="M335.92 114.08V142H330.32V130.12H318.36V142H312.76V114.08H318.36V125.56H330.32V114.08H335.92ZM381.82 142.36C380.006 142.36 378.38 142.04 376.94 141.4C375.5 140.733 374.353 139.84 373.5 138.72C372.673 137.6 372.22 136.36 372.14 135H377.78C377.886 135.853 378.3 136.56 379.02 137.12C379.766 137.68 380.686 137.96 381.78 137.96C382.846 137.96 383.673 137.747 384.26 137.32C384.873 136.893 385.18 136.347 385.18 135.68C385.18 134.96 384.806 134.427 384.06 134.08C383.34 133.707 382.18 133.307 380.58 132.88C378.926 132.48 377.566 132.067 376.5 131.64C375.46 131.213 374.553 130.56 373.78 129.68C373.033 128.8 372.66 127.613 372.66 126.12C372.66 124.893 373.006 123.773 373.7 122.76C374.42 121.747 375.433 120.947 376.74 120.36C378.073 119.773 379.633 119.48 381.42 119.48C384.06 119.48 386.166 120.147 387.74 121.48C389.313 122.787 390.18 124.56 390.34 126.8H384.98C384.9 125.92 384.526 125.227 383.86 124.72C383.22 124.187 382.353 123.92 381.26 123.92C380.246 123.92 379.46 124.107 378.9 124.48C378.366 124.853 378.1 125.373 378.1 126.04C378.1 126.787 378.473 127.36 379.22 127.76C379.966 128.133 381.126 128.52 382.7 128.92C384.3 129.32 385.62 129.733 386.66 130.16C387.7 130.587 388.593 131.253 389.34 132.16C390.113 133.04 390.513 134.213 390.54 135.68C390.54 136.96 390.18 138.107 389.46 139.12C388.766 140.133 387.753 140.933 386.42 141.52C385.113 142.08 383.58 142.36 381.82 142.36ZM403.937 123.04C404.657 122.027 405.643 121.187 406.897 120.52C408.177 119.827 409.63 119.48 411.257 119.48C413.15 119.48 414.857 119.947 416.377 120.88C417.923 121.813 419.137 123.147 420.017 124.88C420.923 126.587 421.377 128.573 421.377 130.84C421.377 133.107 420.923 135.12 420.017 136.88C419.137 138.613 417.923 139.96 416.377 140.92C414.857 141.88 413.15 142.36 411.257 142.36C409.63 142.36 408.19 142.027 406.937 141.36C405.71 140.693 404.71 139.853 403.937 138.84V152.56H398.337V119.84H403.937V123.04ZM415.657 130.84C415.657 129.507 415.377 128.36 414.817 127.4C414.283 126.413 413.563 125.667 412.657 125.16C411.777 124.653 410.817 124.4 409.777 124.4C408.763 124.4 407.803 124.667 406.897 125.2C406.017 125.707 405.297 126.453 404.737 127.44C404.203 128.427 403.937 129.587 403.937 130.92C403.937 132.253 404.203 133.413 404.737 134.4C405.297 135.387 406.017 136.147 406.897 136.68C407.803 137.187 408.763 137.44 409.777 137.44C410.817 137.44 411.777 137.173 412.657 136.64C413.563 136.107 414.283 135.347 414.817 134.36C415.377 133.373 415.657 132.2 415.657 130.84ZM431.486 117.2C430.499 117.2 429.673 116.893 429.006 116.28C428.366 115.64 428.046 114.853 428.046 113.92C428.046 112.987 428.366 112.213 429.006 111.6C429.673 110.96 430.499 110.64 431.486 110.64C432.473 110.64 433.286 110.96 433.926 111.6C434.593 112.213 434.926 112.987 434.926 113.92C434.926 114.853 434.593 115.64 433.926 116.28C433.286 116.893 432.473 117.2 431.486 117.2ZM434.246 119.84V142H428.646V119.84H434.246ZM449.499 124.44V135.16C449.499 135.907 449.672 136.453 450.019 136.8C450.392 137.12 451.005 137.28 451.859 137.28H454.459V142H450.939C446.219 142 443.859 139.707 443.859 135.12V124.44H441.219V119.84H443.859V114.36H449.499V119.84H454.459V124.44H449.499ZM460.247 130.84C460.247 128.6 460.687 126.613 461.567 124.88C462.473 123.147 463.687 121.813 465.207 120.88C466.753 119.947 468.473 119.48 470.367 119.48C472.02 119.48 473.46 119.813 474.687 120.48C475.94 121.147 476.94 121.987 477.687 123V119.84H483.327V142H477.687V138.76C476.967 139.8 475.967 140.667 474.687 141.36C473.433 142.027 471.98 142.36 470.327 142.36C468.46 142.36 466.753 141.88 465.207 140.92C463.687 139.96 462.473 138.613 461.567 136.88C460.687 135.12 460.247 133.107 460.247 130.84ZM477.687 130.92C477.687 129.56 477.42 128.4 476.887 127.44C476.353 126.453 475.633 125.707 474.727 125.2C473.82 124.667 472.847 124.4 471.807 124.4C470.767 124.4 469.807 124.653 468.927 125.16C468.047 125.667 467.327 126.413 466.767 127.4C466.233 128.36 465.967 129.507 465.967 130.84C465.967 132.173 466.233 133.347 466.767 134.36C467.327 135.347 468.047 136.107 468.927 136.64C469.833 137.173 470.793 137.44 471.807 137.44C472.847 137.44 473.82 137.187 474.727 136.68C475.633 136.147 476.353 135.4 476.887 134.44C477.42 133.453 477.687 132.28 477.687 130.92ZM497.596 112.4V142H491.996V112.4H497.596Z"/>
<path d="M354.472 142.36C352.339 142.36 350.419 141.893 348.712 140.96C347.005 140 345.659 138.653 344.672 136.92C343.712 135.187 343.232 133.187 343.232 130.92C343.232 128.653 343.725 126.653 344.712 124.92C345.725 123.187 347.099 121.853 348.832 120.92C350.565 119.96 352.499 119.48 354.632 119.48C356.765 119.48 358.699 119.96 360.432 120.92C362.165 121.853 363.525 123.187 364.512 124.92C365.525 126.653 366.032 128.653 366.032 130.92C366.032 133.187 365.512 135.187 364.472 136.92C363.459 138.653 362.072 140 360.312 140.96C358.579 141.893 356.632 142.36 354.472 142.36ZM354.472 137.48C355.485 137.48 356.432 137.24 357.312 136.76C358.219 136.253 358.939 135.507 359.472 134.52C360.005 133.533 360.272 132.333 360.272 130.92C360.272 128.813 359.712 127.2 358.592 126.08C357.499 124.933 356.152 124.36 354.552 124.36C352.952 124.36 351.605 124.933 350.512 126.08C349.445 127.2 348.912 128.813 348.912 130.92C348.912 133.027 349.432 134.653 350.472 135.8C351.539 136.92 352.872 137.48 354.472 137.48Z"/>
</mask>
<path d="M335.92 114.08V142H330.32V130.12H318.36V142H312.76V114.08H318.36V125.56H330.32V114.08H335.92ZM381.82 142.36C380.006 142.36 378.38 142.04 376.94 141.4C375.5 140.733 374.353 139.84 373.5 138.72C372.673 137.6 372.22 136.36 372.14 135H377.78C377.886 135.853 378.3 136.56 379.02 137.12C379.766 137.68 380.686 137.96 381.78 137.96C382.846 137.96 383.673 137.747 384.26 137.32C384.873 136.893 385.18 136.347 385.18 135.68C385.18 134.96 384.806 134.427 384.06 134.08C383.34 133.707 382.18 133.307 380.58 132.88C378.926 132.48 377.566 132.067 376.5 131.64C375.46 131.213 374.553 130.56 373.78 129.68C373.033 128.8 372.66 127.613 372.66 126.12C372.66 124.893 373.006 123.773 373.7 122.76C374.42 121.747 375.433 120.947 376.74 120.36C378.073 119.773 379.633 119.48 381.42 119.48C384.06 119.48 386.166 120.147 387.74 121.48C389.313 122.787 390.18 124.56 390.34 126.8H384.98C384.9 125.92 384.526 125.227 383.86 124.72C383.22 124.187 382.353 123.92 381.26 123.92C380.246 123.92 379.46 124.107 378.9 124.48C378.366 124.853 378.1 125.373 378.1 126.04C378.1 126.787 378.473 127.36 379.22 127.76C379.966 128.133 381.126 128.52 382.7 128.92C384.3 129.32 385.62 129.733 386.66 130.16C387.7 130.587 388.593 131.253 389.34 132.16C390.113 133.04 390.513 134.213 390.54 135.68C390.54 136.96 390.18 138.107 389.46 139.12C388.766 140.133 387.753 140.933 386.42 141.52C385.113 142.08 383.58 142.36 381.82 142.36ZM403.937 123.04C404.657 122.027 405.643 121.187 406.897 120.52C408.177 119.827 409.63 119.48 411.257 119.48C413.15 119.48 414.857 119.947 416.377 120.88C417.923 121.813 419.137 123.147 420.017 124.88C420.923 126.587 421.377 128.573 421.377 130.84C421.377 133.107 420.923 135.12 420.017 136.88C419.137 138.613 417.923 139.96 416.377 140.92C414.857 141.88 413.15 142.36 411.257 142.36C409.63 142.36 408.19 142.027 406.937 141.36C405.71 140.693 404.71 139.853 403.937 138.84V152.56H398.337V119.84H403.937V123.04ZM415.657 130.84C415.657 129.507 415.377 128.36 414.817 127.4C414.283 126.413 413.563 125.667 412.657 125.16C411.777 124.653 410.817 124.4 409.777 124.4C408.763 124.4 407.803 124.667 406.897 125.2C406.017 125.707 405.297 126.453 404.737 127.44C404.203 128.427 403.937 129.587 403.937 130.92C403.937 132.253 404.203 133.413 404.737 134.4C405.297 135.387 406.017 136.147 406.897 136.68C407.803 137.187 408.763 137.44 409.777 137.44C410.817 137.44 411.777 137.173 412.657 136.64C413.563 136.107 414.283 135.347 414.817 134.36C415.377 133.373 415.657 132.2 415.657 130.84ZM431.486 117.2C430.499 117.2 429.673 116.893 429.006 116.28C428.366 115.64 428.046 114.853 428.046 113.92C428.046 112.987 428.366 112.213 429.006 111.6C429.673 110.96 430.499 110.64 431.486 110.64C432.473 110.64 433.286 110.96 433.926 111.6C434.593 112.213 434.926 112.987 434.926 113.92C434.926 114.853 434.593 115.64 433.926 116.28C433.286 116.893 432.473 117.2 431.486 117.2ZM434.246 119.84V142H428.646V119.84H434.246ZM449.499 124.44V135.16C449.499 135.907 449.672 136.453 450.019 136.8C450.392 137.12 451.005 137.28 451.859 137.28H454.459V142H450.939C446.219 142 443.859 139.707 443.859 135.12V124.44H441.219V119.84H443.859V114.36H449.499V119.84H454.459V124.44H449.499ZM460.247 130.84C460.247 128.6 460.687 126.613 461.567 124.88C462.473 123.147 463.687 121.813 465.207 120.88C466.753 119.947 468.473 119.48 470.367 119.48C472.02 119.48 473.46 119.813 474.687 120.48C475.94 121.147 476.94 121.987 477.687 123V119.84H483.327V142H477.687V138.76C476.967 139.8 475.967 140.667 474.687 141.36C473.433 142.027 471.98 142.36 470.327 142.36C468.46 142.36 466.753 141.88 465.207 140.92C463.687 139.96 462.473 138.613 461.567 136.88C460.687 135.12 460.247 133.107 460.247 130.84ZM477.687 130.92C477.687 129.56 477.42 128.4 476.887 127.44C476.353 126.453 475.633 125.707 474.727 125.2C473.82 124.667 472.847 124.4 471.807 124.4C470.767 124.4 469.807 124.653 468.927 125.16C468.047 125.667 467.327 126.413 466.767 127.4C466.233 128.36 465.967 129.507 465.967 130.84C465.967 132.173 466.233 133.347 466.767 134.36C467.327 135.347 468.047 136.107 468.927 136.64C469.833 137.173 470.793 137.44 471.807 137.44C472.847 137.44 473.82 137.187 474.727 136.68C475.633 136.147 476.353 135.4 476.887 134.44C477.42 133.453 477.687 132.28 477.687 130.92ZM497.596 112.4V142H491.996V112.4H497.596Z" fill="black"/>
<path d="M354.472 142.36C352.339 142.36 350.419 141.893 348.712 140.96C347.005 140 345.659 138.653 344.672 136.92C343.712 135.187 343.232 133.187 343.232 130.92C343.232 128.653 343.725 126.653 344.712 124.92C345.725 123.187 347.099 121.853 348.832 120.92C350.565 119.96 352.499 119.48 354.632 119.48C356.765 119.48 358.699 119.96 360.432 120.92C362.165 121.853 363.525 123.187 364.512 124.92C365.525 126.653 366.032 128.653 366.032 130.92C366.032 133.187 365.512 135.187 364.472 136.92C363.459 138.653 362.072 140 360.312 140.96C358.579 141.893 356.632 142.36 354.472 142.36ZM354.472 137.48C355.485 137.48 356.432 137.24 357.312 136.76C358.219 136.253 358.939 135.507 359.472 134.52C360.005 133.533 360.272 132.333 360.272 130.92C360.272 128.813 359.712 127.2 358.592 126.08C357.499 124.933 356.152 124.36 354.552 124.36C352.952 124.36 351.605 124.933 350.512 126.08C349.445 127.2 348.912 128.813 348.912 130.92C348.912 133.027 349.432 134.653 350.472 135.8C351.539 136.92 352.872 137.48 354.472 137.48Z" fill="#CD0104"/>
<path d="M335.92 114.08H336.92V113.08H335.92V114.08ZM335.92 142V143H336.92V142H335.92ZM330.32 142H329.32V143H330.32V142ZM330.32 130.12H331.32V129.12H330.32V130.12ZM318.36 130.12V129.12H317.36V130.12H318.36ZM318.36 142V143H319.36V142H318.36ZM312.76 142H311.76V143H312.76V142ZM312.76 114.08V113.08H311.76V114.08H312.76ZM318.36 114.08H319.36V113.08H318.36V114.08ZM318.36 125.56H317.36V126.56H318.36V125.56ZM330.32 125.56V126.56H331.32V125.56H330.32ZM330.32 114.08V113.08H329.32V114.08H330.32ZM334.92 114.08V142H336.92V114.08H334.92ZM335.92 141H330.32V143H335.92V141ZM331.32 142V130.12H329.32V142H331.32ZM330.32 129.12H318.36V131.12H330.32V129.12ZM317.36 130.12V142H319.36V130.12H317.36ZM318.36 141H312.76V143H318.36V141ZM313.76 142V114.08H311.76V142H313.76ZM312.76 115.08H318.36V113.08H312.76V115.08ZM317.36 114.08V125.56H319.36V114.08H317.36ZM318.36 126.56H330.32V124.56H318.36V126.56ZM331.32 125.56V114.08H329.32V125.56H331.32ZM330.32 115.08H335.92V113.08H330.32V115.08ZM348.712 140.96L348.222 141.832L348.232 141.837L348.712 140.96ZM344.672 136.92L343.797 137.405L343.803 137.415L344.672 136.92ZM344.712 124.92L343.849 124.415L343.843 124.425L344.712 124.92ZM348.832 120.92L349.306 121.801L349.316 121.795L348.832 120.92ZM360.432 120.92L359.947 121.795L359.958 121.8L360.432 120.92ZM364.512 124.92L363.643 125.415L363.649 125.425L364.512 124.92ZM364.472 136.92L363.614 136.405L363.609 136.415L364.472 136.92ZM360.312 140.96L360.786 141.84L360.791 141.838L360.312 140.96ZM357.312 136.76L357.791 137.638L357.8 137.633L357.312 136.76ZM359.472 134.52L360.352 134.996H360.352L359.472 134.52ZM358.592 126.08L357.868 126.77L357.876 126.779L357.885 126.787L358.592 126.08ZM350.512 126.08L349.788 125.39L349.788 125.39L350.512 126.08ZM350.472 135.8L349.731 136.472L349.739 136.481L349.748 136.49L350.472 135.8ZM354.472 141.36C352.49 141.36 350.737 140.928 349.192 140.083L348.232 141.837C350.1 142.859 352.187 143.36 354.472 143.36V141.36ZM349.202 140.088C347.657 139.219 346.44 138.004 345.541 136.425L343.803 137.415C344.877 139.303 346.354 140.781 348.222 141.832L349.202 140.088ZM345.547 136.436C344.68 134.871 344.232 133.042 344.232 130.92H342.232C342.232 133.331 342.744 135.503 343.797 137.404L345.547 136.436ZM344.232 130.92C344.232 128.803 344.691 126.978 345.581 125.415L343.843 124.425C342.759 126.329 342.232 128.504 342.232 130.92H344.232ZM345.575 125.425C346.498 123.847 347.738 122.645 349.306 121.8L348.358 120.04C346.459 121.062 344.953 122.527 343.849 124.415L345.575 125.425ZM349.316 121.795C350.89 120.923 352.655 120.48 354.632 120.48V118.48C352.342 118.48 350.24 118.997 348.347 120.045L349.316 121.795ZM354.632 120.48C356.609 120.48 358.374 120.923 359.947 121.795L360.916 120.045C359.023 118.997 356.921 118.48 354.632 118.48V120.48ZM359.958 121.8C361.524 122.644 362.748 123.842 363.643 125.415L365.381 124.425C364.303 122.531 362.807 121.063 360.906 120.04L359.958 121.8ZM363.649 125.425C364.561 126.986 365.032 128.807 365.032 130.92H367.032C367.032 128.499 366.489 126.321 365.375 124.415L363.649 125.425ZM365.032 130.92C365.032 133.028 364.55 134.846 363.614 136.406L365.329 137.434C366.474 135.527 367.032 133.345 367.032 130.92H365.032ZM363.609 136.415C362.687 137.992 361.433 139.209 359.833 140.082L360.791 141.838C362.711 140.791 364.23 139.315 365.335 137.425L363.609 136.415ZM359.838 140.08C358.264 140.927 356.483 141.36 354.472 141.36V143.36C356.781 143.36 358.893 142.86 360.786 141.84L359.838 140.08ZM354.472 138.48C355.651 138.48 356.762 138.199 357.791 137.638L356.833 135.882C356.102 136.281 355.32 136.48 354.472 136.48V138.48ZM357.8 137.633C358.885 137.026 359.735 136.135 360.352 134.996L358.592 134.044C358.142 134.878 357.552 135.48 356.824 135.887L357.8 137.633ZM360.352 134.996C360.982 133.83 361.272 132.457 361.272 130.92H359.272C359.272 132.21 359.029 133.237 358.592 134.044L360.352 134.996ZM361.272 130.92C361.272 128.639 360.662 126.736 359.299 125.373L357.885 126.787C358.762 127.664 359.272 128.988 359.272 130.92H361.272ZM359.316 125.39C358.031 124.043 356.422 123.36 354.552 123.36V125.36C355.881 125.36 356.966 125.824 357.868 126.77L359.316 125.39ZM354.552 123.36C352.681 123.36 351.072 124.043 349.788 125.39L351.236 126.77C352.138 125.824 353.222 125.36 354.552 125.36V123.36ZM349.788 125.39C348.488 126.755 347.912 128.651 347.912 130.92H349.912C349.912 128.975 350.402 127.645 351.236 126.77L349.788 125.39ZM347.912 130.92C347.912 133.184 348.472 135.084 349.731 136.472L351.213 135.128C350.392 134.223 349.912 132.869 349.912 130.92H347.912ZM349.748 136.49C351.01 137.815 352.609 138.48 354.472 138.48V136.48C353.135 136.48 352.067 136.025 351.196 135.11L349.748 136.49ZM376.94 141.4L376.52 142.307L376.527 142.311L376.534 142.314L376.94 141.4ZM373.5 138.72L372.695 139.314L372.7 139.32L372.704 139.326L373.5 138.72ZM372.14 135V134H371.079L371.141 135.059L372.14 135ZM377.78 135L378.772 134.876L378.662 134H377.78V135ZM379.02 137.12L378.406 137.909L378.413 137.915L378.42 137.92L379.02 137.12ZM384.26 137.32L383.689 136.499L383.68 136.505L383.672 136.511L384.26 137.32ZM384.06 134.08L383.599 134.968L383.619 134.978L383.639 134.987L384.06 134.08ZM380.58 132.88L380.837 131.914L380.826 131.911L380.815 131.908L380.58 132.88ZM376.5 131.64L376.12 132.565L376.128 132.568L376.5 131.64ZM373.78 129.68L373.017 130.327L373.023 130.334L373.029 130.34L373.78 129.68ZM373.7 122.76L372.885 122.181L372.879 122.188L372.874 122.195L373.7 122.76ZM376.74 120.36L376.337 119.445L376.33 119.448L376.74 120.36ZM387.74 121.48L387.093 122.243L387.101 122.249L387.74 121.48ZM390.34 126.8V127.8H391.414L391.337 126.729L390.34 126.8ZM384.98 126.8L383.984 126.891L384.066 127.8H384.98V126.8ZM383.86 124.72L383.22 125.488L383.237 125.503L383.255 125.516L383.86 124.72ZM378.9 124.48L378.345 123.648L378.336 123.654L378.326 123.661L378.9 124.48ZM379.22 127.76L378.747 128.641L378.76 128.648L378.772 128.654L379.22 127.76ZM382.7 128.92L382.453 129.889L382.457 129.89L382.7 128.92ZM389.34 132.16L388.568 132.796L388.578 132.808L388.589 132.82L389.34 132.16ZM390.54 135.68H391.54V135.671L391.54 135.662L390.54 135.68ZM389.46 139.12L388.645 138.541L388.639 138.548L388.634 138.555L389.46 139.12ZM386.42 141.52L386.814 142.439L386.822 142.435L386.42 141.52ZM381.82 141.36C380.125 141.36 378.64 141.061 377.346 140.486L376.534 142.314C378.119 143.019 379.887 143.36 381.82 143.36V141.36ZM377.36 140.493C376.049 139.885 375.038 139.089 374.295 138.114L372.704 139.326C373.668 140.591 374.951 141.581 376.52 142.307L377.36 140.493ZM374.304 138.126C373.59 137.158 373.206 136.103 373.138 134.941L371.141 135.059C371.233 136.617 371.756 138.042 372.695 139.314L374.304 138.126ZM372.14 136H377.78V134H372.14V136ZM376.787 135.124C376.929 136.258 377.49 137.197 378.406 137.909L379.634 136.331C379.109 135.923 378.844 135.449 378.772 134.876L376.787 135.124ZM378.42 137.92C379.368 138.631 380.508 138.96 381.78 138.96V136.96C380.864 136.96 380.165 136.729 379.62 136.32L378.42 137.92ZM381.78 138.96C382.963 138.96 384.027 138.726 384.848 138.129L383.672 136.511C383.319 136.768 382.73 136.96 381.78 136.96V138.96ZM384.831 138.141C385.675 137.554 386.18 136.717 386.18 135.68H384.18C384.18 135.976 384.071 136.233 383.689 136.499L384.831 138.141ZM386.18 135.68C386.18 135.138 386.036 134.619 385.719 134.167C385.408 133.722 384.972 133.401 384.481 133.173L383.639 134.987C383.894 135.105 384.018 135.225 384.08 135.313C384.137 135.394 384.18 135.502 384.18 135.68H386.18ZM384.52 133.192C383.699 132.766 382.451 132.344 380.837 131.914L380.322 133.846C381.909 134.269 382.981 134.647 383.599 134.968L384.52 133.192ZM380.815 131.908C379.188 131.514 377.878 131.114 376.871 130.712L376.128 132.568C377.255 133.019 378.665 133.446 380.345 133.852L380.815 131.908ZM376.879 130.715C375.988 130.349 375.207 129.789 374.531 129.02L373.029 130.34C373.899 131.331 374.931 132.077 376.12 132.565L376.879 130.715ZM374.542 129.033C373.989 128.381 373.66 127.447 373.66 126.12H371.66C371.66 127.779 372.077 129.219 373.017 130.327L374.542 129.033ZM373.66 126.12C373.66 125.095 373.945 124.172 374.525 123.325L372.874 122.195C372.067 123.375 371.66 124.692 371.66 126.12H373.66ZM374.515 123.339C375.117 122.492 375.98 121.797 377.149 121.272L376.33 119.448C374.886 120.096 373.722 121.001 372.885 122.181L374.515 123.339ZM377.142 121.275C378.324 120.756 379.741 120.48 381.42 120.48V118.48C379.525 118.48 377.823 118.791 376.337 119.445L377.142 121.275ZM381.42 120.48C383.891 120.48 385.746 121.101 387.093 122.243L388.386 120.717C386.586 119.192 384.229 118.48 381.42 118.48V120.48ZM387.101 122.249C388.443 123.364 389.2 124.874 389.342 126.871L391.337 126.729C391.16 124.246 390.183 122.21 388.379 120.711L387.101 122.249ZM390.34 125.8H384.98V127.8H390.34V125.8ZM385.976 126.709C385.872 125.567 385.369 124.611 384.465 123.924L383.255 125.516C383.684 125.843 383.928 126.273 383.984 126.891L385.976 126.709ZM384.5 123.952C383.631 123.227 382.513 122.92 381.26 122.92V124.92C382.193 124.92 382.809 125.146 383.22 125.488L384.5 123.952ZM381.26 122.92C380.142 122.92 379.133 123.123 378.345 123.648L379.454 125.312C379.787 125.091 380.35 124.92 381.26 124.92V122.92ZM378.326 123.661C377.518 124.227 377.1 125.056 377.1 126.04H379.1C379.1 125.69 379.215 125.48 379.473 125.299L378.326 123.661ZM377.1 126.04C377.1 126.589 377.24 127.112 377.542 127.576C377.839 128.033 378.261 128.381 378.747 128.641L379.692 126.879C379.432 126.739 379.293 126.6 379.218 126.484C379.146 126.375 379.1 126.238 379.1 126.04H377.1ZM378.772 128.654C379.618 129.077 380.863 129.485 382.453 129.889L382.946 127.951C381.39 127.555 380.315 127.189 379.667 126.866L378.772 128.654ZM382.457 129.89C384.03 130.283 385.3 130.683 386.28 131.085L387.039 129.235C385.939 128.784 384.569 128.357 382.942 127.95L382.457 129.89ZM386.28 131.085C387.161 131.446 387.921 132.011 388.568 132.796L390.112 131.524C389.265 130.496 388.239 129.727 387.039 129.235L386.28 131.085ZM388.589 132.82C389.169 133.481 389.516 134.407 389.54 135.698L391.54 135.662C391.51 134.02 391.057 132.599 390.091 131.5L388.589 132.82ZM389.54 135.68C389.54 136.759 389.241 137.702 388.645 138.541L390.275 139.699C391.119 138.511 391.54 137.161 391.54 135.68H389.54ZM388.634 138.555C388.065 139.388 387.212 140.079 386.017 140.605L386.822 142.435C388.294 141.788 389.468 140.879 390.285 139.685L388.634 138.555ZM386.026 140.601C384.869 141.096 383.476 141.36 381.82 141.36V143.36C383.684 143.36 385.357 143.064 386.814 142.439L386.026 140.601ZM403.937 123.04H402.937V126.174L404.752 123.619L403.937 123.04ZM406.897 120.52L407.366 121.403L407.373 121.399L406.897 120.52ZM416.377 120.88L415.853 121.732L415.86 121.736L416.377 120.88ZM420.017 124.88L419.125 125.333L419.129 125.341L419.133 125.349L420.017 124.88ZM420.017 136.88L419.128 136.422L419.125 136.427L420.017 136.88ZM416.377 140.92L415.849 140.07L415.843 140.075L416.377 140.92ZM406.937 141.36L406.459 142.239L406.467 142.243L406.937 141.36ZM403.937 138.84L404.732 138.233L402.937 135.881V138.84H403.937ZM403.937 152.56V153.56H404.937V152.56H403.937ZM398.337 152.56H397.337V153.56H398.337V152.56ZM398.337 119.84V118.84H397.337V119.84H398.337ZM403.937 119.84H404.937V118.84H403.937V119.84ZM414.817 127.4L413.937 127.876L413.945 127.89L413.953 127.904L414.817 127.4ZM412.657 125.16L412.158 126.027L412.169 126.033L412.657 125.16ZM406.897 125.2L407.396 126.067L407.404 126.062L406.897 125.2ZM404.737 127.44L403.867 126.946L403.862 126.955L403.857 126.964L404.737 127.44ZM404.737 134.4L403.857 134.876L403.862 134.885L403.867 134.894L404.737 134.4ZM406.897 136.68L406.378 137.535L406.393 137.544L406.409 137.553L406.897 136.68ZM412.657 136.64L412.149 135.778L412.138 135.785L412.657 136.64ZM414.817 134.36L413.947 133.866L413.942 133.875L413.937 133.884L414.817 134.36ZM404.752 123.619C405.37 122.749 406.23 122.007 407.366 121.403L406.427 119.637C405.056 120.366 403.943 121.304 403.121 122.461L404.752 123.619ZM407.373 121.399C408.49 120.794 409.776 120.48 411.257 120.48V118.48C409.483 118.48 407.863 118.859 406.42 119.641L407.373 121.399ZM411.257 120.48C412.977 120.48 414.501 120.902 415.853 121.732L416.9 120.028C415.213 118.992 413.323 118.48 411.257 118.48V120.48ZM415.86 121.736C417.234 122.565 418.323 123.753 419.125 125.333L420.908 124.427C419.95 122.54 418.612 121.061 416.893 120.024L415.86 121.736ZM419.133 125.349C419.951 126.888 420.377 128.709 420.377 130.84H422.377C422.377 128.438 421.895 126.285 420.9 124.411L419.133 125.349ZM420.377 130.84C420.377 132.971 419.951 134.823 419.128 136.422L420.906 137.338C421.895 135.417 422.377 133.243 422.377 130.84H420.377ZM419.125 136.427C418.322 138.009 417.23 139.213 415.849 140.07L416.904 141.77C418.617 140.707 419.951 139.218 420.908 137.333L419.125 136.427ZM415.843 140.075C414.491 140.928 412.971 141.36 411.257 141.36V143.36C413.328 143.36 415.222 142.832 416.911 141.765L415.843 140.075ZM411.257 141.36C409.77 141.36 408.495 141.056 407.406 140.477L406.467 142.243C407.885 142.997 409.49 143.36 411.257 143.36V141.36ZM407.414 140.481C406.299 139.876 405.412 139.124 404.732 138.233L403.142 139.447C404.008 140.582 405.12 141.511 406.459 142.239L407.414 140.481ZM402.937 138.84V152.56H404.937V138.84H402.937ZM403.937 151.56H398.337V153.56H403.937V151.56ZM399.337 152.56V119.84H397.337V152.56H399.337ZM398.337 120.84H403.937V118.84H398.337V120.84ZM402.937 119.84V123.04H404.937V119.84H402.937ZM416.657 130.84C416.657 129.365 416.346 128.037 415.68 126.896L413.953 127.904C414.407 128.683 414.657 129.648 414.657 130.84H416.657ZM415.696 126.924C415.08 125.785 414.23 124.894 413.144 124.287L412.169 126.033C412.896 126.44 413.486 127.042 413.937 127.876L415.696 126.924ZM413.156 124.293C412.12 123.697 410.987 123.4 409.777 123.4V125.4C410.646 125.4 411.433 125.61 412.158 126.027L413.156 124.293ZM409.777 123.4C408.578 123.4 407.444 123.718 406.39 124.338L407.404 126.062C408.163 125.615 408.948 125.4 409.777 125.4V123.4ZM406.398 124.333C405.345 124.939 404.504 125.823 403.867 126.946L405.606 127.934C406.089 127.083 406.688 126.474 407.396 126.067L406.398 124.333ZM403.857 126.964C403.231 128.122 402.937 129.452 402.937 130.92H404.937C404.937 129.721 405.176 128.731 405.616 127.916L403.857 126.964ZM402.937 130.92C402.937 132.388 403.231 133.718 403.857 134.876L405.616 133.924C405.176 133.109 404.937 132.119 404.937 130.92H402.937ZM403.867 134.894C404.502 136.013 405.338 136.904 406.378 137.535L407.415 135.825C406.696 135.389 406.091 134.76 405.606 133.906L403.867 134.894ZM406.409 137.553C407.461 138.141 408.588 138.44 409.777 138.44V136.44C408.938 136.44 408.146 136.233 407.384 135.807L406.409 137.553ZM409.777 138.44C410.997 138.44 412.137 138.124 413.175 137.495L412.138 135.785C411.416 136.222 410.636 136.44 409.777 136.44V138.44ZM413.164 137.502C414.238 136.87 415.082 135.971 415.696 134.836L413.937 133.884C413.484 134.722 412.889 135.343 412.15 135.778L413.164 137.502ZM415.686 134.854C416.347 133.689 416.657 132.339 416.657 130.84H414.657C414.657 132.061 414.406 133.058 413.947 133.866L415.686 134.854ZM429.006 116.28L428.299 116.987L428.314 117.002L428.329 117.016L429.006 116.28ZM429.006 111.6L429.698 112.322L429.698 112.321L429.006 111.6ZM433.926 111.6L433.219 112.307L433.234 112.322L433.249 112.336L433.926 111.6ZM433.926 116.28L434.618 117.002L434.618 117.001L433.926 116.28ZM434.246 119.84H435.246V118.84H434.246V119.84ZM434.246 142V143H435.246V142H434.246ZM428.646 142H427.646V143H428.646V142ZM428.646 119.84V118.84H427.646V119.84H428.646ZM431.486 116.2C430.726 116.2 430.148 115.972 429.683 115.544L428.329 117.016C429.197 117.815 430.273 118.2 431.486 118.2V116.2ZM429.713 115.573C429.267 115.127 429.046 114.597 429.046 113.92H427.046C427.046 115.109 427.465 116.153 428.299 116.987L429.713 115.573ZM429.046 113.92C429.046 113.243 429.266 112.736 429.698 112.322L428.314 110.878C427.466 111.691 427.046 112.73 427.046 113.92H429.046ZM429.698 112.321C430.165 111.873 430.738 111.64 431.486 111.64V109.64C430.26 109.64 429.18 110.047 428.313 110.879L429.698 112.321ZM431.486 111.64C432.234 111.64 432.784 111.872 433.219 112.307L434.633 110.893C433.788 110.048 432.711 109.64 431.486 109.64V111.64ZM433.249 112.336C433.703 112.753 433.926 113.257 433.926 113.92H435.926C435.926 112.717 435.482 111.673 434.603 110.864L433.249 112.336ZM433.926 113.92C433.926 114.584 433.701 115.109 433.233 115.559L434.618 117.001C435.484 116.171 435.926 115.123 435.926 113.92H433.926ZM433.234 115.558C432.802 115.972 432.246 116.2 431.486 116.2V118.2C432.699 118.2 433.77 117.815 434.618 117.002L433.234 115.558ZM433.246 119.84V142H435.246V119.84H433.246ZM434.246 141H428.646V143H434.246V141ZM429.646 142V119.84H427.646V142H429.646ZM428.646 120.84H434.246V118.84H428.646V120.84ZM449.499 124.44V123.44H448.499V124.44H449.499ZM450.019 136.8L449.312 137.507L449.339 137.534L449.368 137.559L450.019 136.8ZM454.459 137.28H455.459V136.28H454.459V137.28ZM454.459 142V143H455.459V142H454.459ZM443.859 124.44H444.859V123.44H443.859V124.44ZM441.219 124.44H440.219V125.44H441.219V124.44ZM441.219 119.84V118.84H440.219V119.84H441.219ZM443.859 119.84V120.84H444.859V119.84H443.859ZM443.859 114.36V113.36H442.859V114.36H443.859ZM449.499 114.36H450.499V113.36H449.499V114.36ZM449.499 119.84H448.499V120.84H449.499V119.84ZM454.459 119.84H455.459V118.84H454.459V119.84ZM454.459 124.44V125.44H455.459V124.44H454.459ZM448.499 124.44V135.16H450.499V124.44H448.499ZM448.499 135.16C448.499 136.036 448.699 136.895 449.312 137.507L450.726 136.093C450.645 136.012 450.499 135.778 450.499 135.16H448.499ZM449.368 137.559C450.015 138.114 450.926 138.28 451.859 138.28V136.28C451.085 136.28 450.769 136.126 450.67 136.041L449.368 137.559ZM451.859 138.28H454.459V136.28H451.859V138.28ZM453.459 137.28V142H455.459V137.28H453.459ZM454.459 141H450.939V143H454.459V141ZM450.939 141C448.726 141 447.251 140.462 446.326 139.563C445.406 138.669 444.859 137.252 444.859 135.12H442.859C442.859 137.575 443.492 139.598 444.932 140.997C446.366 142.391 448.432 143 450.939 143V141ZM444.859 135.12V124.44H442.859V135.12H444.859ZM443.859 123.44H441.219V125.44H443.859V123.44ZM442.219 124.44V119.84H440.219V124.44H442.219ZM441.219 120.84H443.859V118.84H441.219V120.84ZM444.859 119.84V114.36H442.859V119.84H444.859ZM443.859 115.36H449.499V113.36H443.859V115.36ZM448.499 114.36V119.84H450.499V114.36H448.499ZM449.499 120.84H454.459V118.84H449.499V120.84ZM453.459 119.84V124.44H455.459V119.84H453.459ZM454.459 123.44H449.499V125.44H454.459V123.44ZM461.567 124.88L460.68 124.416L460.675 124.427L461.567 124.88ZM465.207 120.88L464.69 120.024L464.683 120.028L465.207 120.88ZM474.687 120.48L474.209 121.359L474.217 121.363L474.687 120.48ZM477.687 123L476.882 123.593L478.687 126.043V123H477.687ZM477.687 119.84V118.84H476.687V119.84H477.687ZM483.327 119.84H484.327V118.84H483.327V119.84ZM483.327 142V143H484.327V142H483.327ZM477.687 142H476.687V143H477.687V142ZM477.687 138.76H478.687V135.559L476.864 138.191L477.687 138.76ZM474.687 141.36L475.156 142.243L475.163 142.239L474.687 141.36ZM465.207 140.92L464.673 141.766L464.679 141.77L465.207 140.92ZM461.567 136.88L460.672 137.327L460.676 137.335L460.68 137.343L461.567 136.88ZM476.887 127.44L476.007 127.916L476.012 127.926L476.887 127.44ZM474.727 125.2L474.22 126.062L474.229 126.068L474.239 126.073L474.727 125.2ZM468.927 125.16L468.428 124.293L468.927 125.16ZM466.767 127.4L465.897 126.906L465.892 126.914L466.767 127.4ZM466.767 134.36L465.882 134.826L465.889 134.84L465.897 134.854L466.767 134.36ZM468.927 136.64L468.408 137.495L468.42 137.502L468.927 136.64ZM474.727 136.68L475.214 137.553L475.224 137.548L475.234 137.542L474.727 136.68ZM476.887 134.44L477.761 134.926L477.766 134.916L476.887 134.44ZM461.247 130.84C461.247 128.733 461.66 126.906 462.458 125.333L460.675 124.427C459.714 126.321 459.247 128.467 459.247 130.84H461.247ZM462.453 125.343C463.284 123.754 464.378 122.562 465.73 121.732L464.683 120.028C462.995 121.065 461.662 122.539 460.68 124.417L462.453 125.343ZM465.723 121.736C467.106 120.902 468.646 120.48 470.367 120.48V118.48C468.3 118.48 466.4 118.992 464.69 120.024L465.723 121.736ZM470.367 120.48C471.884 120.48 473.154 120.785 474.209 121.359L475.164 119.601C473.766 118.842 472.156 118.48 470.367 118.48V120.48ZM474.217 121.363C475.355 121.968 476.234 122.715 476.882 123.593L478.492 122.407C477.645 121.258 476.525 120.325 475.156 119.597L474.217 121.363ZM478.687 123V119.84H476.687V123H478.687ZM477.687 120.84H483.327V118.84H477.687V120.84ZM482.327 119.84V142H484.327V119.84H482.327ZM483.327 141H477.687V143H483.327V141ZM478.687 142V138.76H476.687V142H478.687ZM476.864 138.191C476.246 139.083 475.373 139.851 474.21 140.481L475.163 142.239C476.56 141.483 477.687 140.517 478.509 139.329L476.864 138.191ZM474.217 140.477C473.13 141.055 471.843 141.36 470.327 141.36V143.36C472.117 143.36 473.736 142.998 475.156 142.243L474.217 140.477ZM470.327 141.36C468.641 141.36 467.118 140.929 465.734 140.07L464.679 141.77C466.388 142.831 468.279 143.36 470.327 143.36V141.36ZM465.741 140.075C464.382 139.217 463.285 138.008 462.453 136.417L460.68 137.343C461.661 139.219 462.991 140.703 464.673 141.765L465.741 140.075ZM462.461 136.433C461.66 134.831 461.247 132.975 461.247 130.84H459.247C459.247 133.238 459.713 135.409 460.672 137.327L462.461 136.433ZM478.687 130.92C478.687 129.43 478.394 128.094 477.761 126.954L476.012 127.926C476.446 128.706 476.687 129.69 476.687 130.92H478.687ZM477.766 126.964C477.15 125.825 476.3 124.934 475.214 124.327L474.239 126.073C474.966 126.48 475.556 127.082 476.007 127.916L477.766 126.964ZM475.234 124.338C474.175 123.715 473.027 123.4 471.807 123.4V125.4C472.666 125.4 473.465 125.618 474.22 126.062L475.234 124.338ZM471.807 123.4C470.596 123.4 469.463 123.697 468.428 124.293L469.426 126.027C470.15 125.61 470.937 125.4 471.807 125.4V123.4ZM468.428 124.293C467.375 124.899 466.534 125.783 465.897 126.906L467.636 127.894C468.119 127.043 468.718 126.434 469.426 126.027L468.428 124.293ZM465.892 126.914C465.261 128.052 464.967 129.373 464.967 130.84H466.967C466.967 129.64 467.206 128.668 467.641 127.886L465.892 126.914ZM464.967 130.84C464.967 132.309 465.261 133.647 465.882 134.826L467.651 133.894C467.205 133.046 466.967 132.038 466.967 130.84H464.967ZM465.897 134.854C466.532 135.973 467.368 136.864 468.408 137.495L469.445 135.785C468.726 135.349 468.121 134.72 467.636 133.866L465.897 134.854ZM468.42 137.502C469.474 138.122 470.608 138.44 471.807 138.44V136.44C470.978 136.44 470.193 136.225 469.434 135.778L468.42 137.502ZM471.807 138.44C473.017 138.44 474.158 138.143 475.214 137.553L474.239 135.807C473.481 136.23 472.676 136.44 471.807 136.44V138.44ZM475.234 137.542C476.301 136.914 477.145 136.034 477.761 134.926L476.012 133.954C475.562 134.766 474.966 135.379 474.22 135.818L475.234 137.542ZM477.766 134.916C478.394 133.755 478.687 132.411 478.687 130.92H476.687C476.687 132.149 476.446 133.152 476.007 133.964L477.766 134.916ZM497.596 112.4H498.596V111.4H497.596V112.4ZM497.596 142V143H498.596V142H497.596ZM491.996 142H490.996V143H491.996V142ZM491.996 112.4V111.4H490.996V112.4H491.996ZM496.596 112.4V142H498.596V112.4H496.596ZM497.596 141H491.996V143H497.596V141ZM492.996 142V112.4H490.996V142H492.996ZM491.996 113.4H497.596V111.4H491.996V113.4Z" fill="white" mask="url(#path-9-outside-2_83_2)"/>
<defs>
<filter id="filter0_d_83_2" x="248.5" y="50.5" width="49.5" height="49.5" filterUnits="userSpaceOnUse" color-interpolation-filters="sRGB">
<feFlood flood-opacity="0" result="BackgroundImageFix"/>
<feColorMatrix in="SourceAlpha" type="matrix" values="0 0 0 0 0 0 0 0 0 0 0 0 0 0 0 0 0 0 127 0" result="hardAlpha"/>
<feOffset dy="4"/>
<feGaussianBlur stdDeviation="2"/>
<feComposite in2="hardAlpha" operator="out"/>
<feColorMatrix type="matrix" values="0 0 0 0 0 0 0 0 0 0 0 0 0 0 0 0 0 0 0.25 0"/>
<feBlend mode="normal" in2="BackgroundImageFix" result="effect1_dropShadow_83_2"/>
<feBlend mode="normal" in="SourceGraphic" in2="effect1_dropShadow_83_2" result="shape"/>
</filter>
<filter id="filter1_d_83_2" x="148" y="0.5" width="99.5" height="149.5" filterUnits="userSpaceOnUse" color-interpolation-filters="sRGB">
<feFlood flood-opacity="0" result="BackgroundImageFix"/>
<feColorMatrix in="SourceAlpha" type="matrix" values="0 0 0 0 0 0 0 0 0 0 0 0 0 0 0 0 0 0 127 0" result="hardAlpha"/>
<feOffset dy="4"/>
<feGaussianBlur stdDeviation="2"/>
<feComposite in2="hardAlpha" operator="out"/>
<feColorMatrix type="matrix" values="0 0 0 0 0 0 0 0 0 0 0 0 0 0 0 0 0 0 0.25 0"/>
<feBlend mode="normal" in2="BackgroundImageFix" result="effect1_dropShadow_83_2"/>
<feBlend mode="normal" in="SourceGraphic" in2="effect1_dropShadow_83_2" result="shape"/>
</filter>
<filter id="filter2_d_83_2" x="0.644318" y="0" width="150.856" height="150" filterUnits="userSpaceOnUse" color-interpolation-filters="sRGB">
<feFlood flood-opacity="0" result="BackgroundImageFix"/>
<feColorMatrix in="SourceAlpha" type="matrix" values="0 0 0 0 0 0 0 0 0 0 0 0 0 0 0 0 0 0 127 0" result="hardAlpha"/>
<feOffset dy="4"/>
<feGaussianBlur stdDeviation="2"/>
<feComposite in2="hardAlpha" operator="out"/>
<feColorMatrix type="matrix" values="0 0 0 0 0 0 0 0 0 0 0 0 0 0 0 0 0 0 0.25 0"/>
<feBlend mode="normal" in2="BackgroundImageFix" result="effect1_dropShadow_83_2"/>
<feBlend mode="normal" in="SourceGraphic" in2="effect1_dropShadow_83_2" result="shape"/>
</filter>
<linearGradient id="paint0_linear_83_2" x1="197.75" y1="0.5" x2="197.75" y2="142" gradientUnits="userSpaceOnUse">
<stop stop-color="#CD0104"/>
<stop offset="1" stop-color="#670102"/>
</linearGradient>
</defs>
</svg>
