<svg width="302" height="192" viewBox="0 0 302 192" fill="none" xmlns="http://www.w3.org/2000/svg">
<path d="M255 89.5V54C255 52.3431 256.343 51 258 51H293.5C295.157 51 296.5 52.3431 296.5 54V89.5C296.5 91.1569 295.157 92.5 293.5 92.5H258C256.343 92.5 255 91.1569 255 89.5Z" fill="#FF414D"/>
<path d="M205 48V4C205 2.34315 206.343 1 208 1H243C244.657 1 246 2.34315 246 4V139.5C246 141.157 244.657 142.5 243 142.5H208C206.343 142.5 205 141.157 205 139.5V95.5C205 93.8431 203.657 92.5 202 92.5H157.5C155.843 92.5 154.5 91.1569 154.5 89.5V54C154.5 52.3431 155.843 51 157.5 51H202C203.657 51 205 49.6569 205 48Z" fill="#FF414D"/>
<path d="M147 0.5H102.093C101.097 0.5 100.166 0.994498 99.6077 1.81978L7.66409 137.82C6.31717 139.812 7.74453 142.5 10.1494 142.5H50.9145C51.9065 142.5 52.8343 142.01 53.3932 141.19L59.1068 132.81C59.6656 131.99 60.5935 131.5 61.5855 131.5H97C98.6568 131.5 100 130.157 100 128.5V97.5C100 95.8431 98.6568 94.5 97 94.5H90.2414C87.8184 94.5 86.395 91.7759 87.7787 89.7868L103.037 67.8527C104.715 65.4411 108.5 66.6282 108.5 69.5658V139.5C108.5 141.157 109.843 142.5 111.5 142.5H147C148.657 142.5 150 141.157 150 139.5V3.5C150 1.84315 148.657 0.5 147 0.5Z" fill="#0047FF"/>
<path d="M18.88 175.68H7.75999L5.91999 181H0.0399933L10.08 153.04H16.6L26.64 181H20.72L18.88 175.68ZM17.36 171.2L13.32 159.52L9.27999 171.2H17.36Z" fill="white"/>
<path d="M39.1928 151.4V181H33.5928V151.4H39.1928Z" fill="white"/>
<path d="M53.5256 162.08C54.2456 161.013 55.2323 160.147 56.4856 159.48C57.7656 158.813 59.219 158.48 60.8456 158.48C62.739 158.48 64.4456 158.947 65.9656 159.88C67.5123 160.813 68.7256 162.147 69.6056 163.88C70.5123 165.587 70.9656 167.573 70.9656 169.84C70.9656 172.107 70.5123 174.12 69.6056 175.88C68.7256 177.613 67.5123 178.96 65.9656 179.92C64.4456 180.88 62.739 181.36 60.8456 181.36C59.1923 181.36 57.739 181.04 56.4856 180.4C55.259 179.733 54.2723 178.88 53.5256 177.84V181H47.9256V151.4H53.5256V162.08ZM65.2456 169.84C65.2456 168.507 64.9656 167.36 64.4056 166.4C63.8723 165.413 63.1523 164.667 62.2456 164.16C61.3656 163.653 60.4056 163.4 59.3656 163.4C58.3523 163.4 57.3923 163.667 56.4856 164.2C55.6056 164.707 54.8856 165.453 54.3256 166.44C53.7923 167.427 53.5256 168.587 53.5256 169.92C53.5256 171.253 53.7923 172.413 54.3256 173.4C54.8856 174.387 55.6056 175.147 56.4856 175.68C57.3923 176.187 58.3523 176.44 59.3656 176.44C60.4056 176.44 61.3656 176.173 62.2456 175.64C63.1523 175.107 63.8723 174.347 64.4056 173.36C64.9656 172.373 65.2456 171.2 65.2456 169.84Z" fill="white"/>
<path d="M76.795 169.84C76.795 167.6 77.235 165.613 78.115 163.88C79.0217 162.147 80.235 160.813 81.755 159.88C83.3017 158.947 85.0217 158.48 86.915 158.48C88.5683 158.48 90.0083 158.813 91.235 159.48C92.4883 160.147 93.4883 160.987 94.235 162V158.84H99.875V181H94.235V177.76C93.515 178.8 92.515 179.667 91.235 180.36C89.9817 181.027 88.5283 181.36 86.875 181.36C85.0083 181.36 83.3017 180.88 81.755 179.92C80.235 178.96 79.0217 177.613 78.115 175.88C77.235 174.12 76.795 172.107 76.795 169.84ZM94.235 169.92C94.235 168.56 93.9683 167.4 93.435 166.44C92.9017 165.453 92.1817 164.707 91.275 164.2C90.3683 163.667 89.395 163.4 88.355 163.4C87.315 163.4 86.355 163.653 85.475 164.16C84.595 164.667 83.875 165.413 83.315 166.4C82.7817 167.36 82.515 168.507 82.515 169.84C82.515 171.173 82.7817 172.347 83.315 173.36C83.875 174.347 84.595 175.107 85.475 175.64C86.3817 176.173 87.3417 176.44 88.355 176.44C89.395 176.44 90.3683 176.187 91.275 175.68C92.1817 175.147 92.9017 174.4 93.435 173.44C93.9683 172.453 94.235 171.28 94.235 169.92Z" fill="white"/>
<path d="M139.92 153.08V181H134.32V169.12H122.36V181H116.76V153.08H122.36V164.56H134.32V153.08H139.92Z" fill="white"/>
<path d="M158.472 181.36C156.339 181.36 154.419 180.893 152.712 179.96C151.005 179 149.659 177.653 148.672 175.92C147.712 174.187 147.232 172.187 147.232 169.92C147.232 167.653 147.725 165.653 148.712 163.92C149.725 162.187 151.099 160.853 152.832 159.92C154.565 158.96 156.499 158.48 158.632 158.48C160.765 158.48 162.699 158.96 164.432 159.92C166.165 160.853 167.525 162.187 168.512 163.92C169.525 165.653 170.032 167.653 170.032 169.92C170.032 172.187 169.512 174.187 168.472 175.92C167.459 177.653 166.072 179 164.312 179.96C162.579 180.893 160.632 181.36 158.472 181.36ZM158.472 176.48C159.485 176.48 160.432 176.24 161.312 175.76C162.219 175.253 162.939 174.507 163.472 173.52C164.005 172.533 164.272 171.333 164.272 169.92C164.272 167.813 163.712 166.2 162.592 165.08C161.499 163.933 160.152 163.36 158.552 163.36C156.952 163.36 155.605 163.933 154.512 165.08C153.445 166.2 152.912 167.813 152.912 169.92C152.912 172.027 153.432 173.653 154.472 174.8C155.539 175.92 156.872 176.48 158.472 176.48Z" fill="white"/>
<path d="M185.82 181.36C184.006 181.36 182.38 181.04 180.94 180.4C179.5 179.733 178.353 178.84 177.5 177.72C176.673 176.6 176.22 175.36 176.14 174H181.78C181.886 174.853 182.3 175.56 183.02 176.12C183.766 176.68 184.686 176.96 185.78 176.96C186.846 176.96 187.673 176.747 188.26 176.32C188.873 175.893 189.18 175.347 189.18 174.68C189.18 173.96 188.806 173.427 188.06 173.08C187.34 172.707 186.18 172.307 184.58 171.88C182.926 171.48 181.566 171.067 180.5 170.64C179.46 170.213 178.553 169.56 177.78 168.68C177.033 167.8 176.66 166.613 176.66 165.12C176.66 163.893 177.006 162.773 177.7 161.76C178.42 160.747 179.433 159.947 180.74 159.36C182.073 158.773 183.633 158.48 185.42 158.48C188.06 158.48 190.166 159.147 191.74 160.48C193.313 161.787 194.18 163.56 194.34 165.8H188.98C188.9 164.92 188.526 164.227 187.86 163.72C187.22 163.187 186.353 162.92 185.26 162.92C184.246 162.92 183.46 163.107 182.9 163.48C182.366 163.853 182.1 164.373 182.1 165.04C182.1 165.787 182.473 166.36 183.22 166.76C183.966 167.133 185.126 167.52 186.7 167.92C188.3 168.32 189.62 168.733 190.66 169.16C191.7 169.587 192.593 170.253 193.34 171.16C194.113 172.04 194.513 173.213 194.54 174.68C194.54 175.96 194.18 177.107 193.46 178.12C192.766 179.133 191.753 179.933 190.42 180.52C189.113 181.08 187.58 181.36 185.82 181.36Z" fill="white"/>
<path d="M207.937 162.04C208.657 161.027 209.643 160.187 210.897 159.52C212.177 158.827 213.63 158.48 215.257 158.48C217.15 158.48 218.857 158.947 220.377 159.88C221.923 160.813 223.137 162.147 224.017 163.88C224.923 165.587 225.377 167.573 225.377 169.84C225.377 172.107 224.923 174.12 224.017 175.88C223.137 177.613 221.923 178.96 220.377 179.92C218.857 180.88 217.15 181.36 215.257 181.36C213.63 181.36 212.19 181.027 210.937 180.36C209.71 179.693 208.71 178.853 207.937 177.84V191.56H202.337V158.84H207.937V162.04ZM219.657 169.84C219.657 168.507 219.377 167.36 218.817 166.4C218.283 165.413 217.563 164.667 216.657 164.16C215.777 163.653 214.817 163.4 213.777 163.4C212.763 163.4 211.803 163.667 210.897 164.2C210.017 164.707 209.297 165.453 208.737 166.44C208.203 167.427 207.937 168.587 207.937 169.92C207.937 171.253 208.203 172.413 208.737 173.4C209.297 174.387 210.017 175.147 210.897 175.68C211.803 176.187 212.763 176.44 213.777 176.44C214.817 176.44 215.777 176.173 216.657 175.64C217.563 175.107 218.283 174.347 218.817 173.36C219.377 172.373 219.657 171.2 219.657 169.84Z" fill="white"/>
<path d="M235.486 156.2C234.499 156.2 233.673 155.893 233.006 155.28C232.366 154.64 232.046 153.853 232.046 152.92C232.046 151.987 232.366 151.213 233.006 150.6C233.673 149.96 234.499 149.64 235.486 149.64C236.473 149.64 237.286 149.96 237.926 150.6C238.593 151.213 238.926 151.987 238.926 152.92C238.926 153.853 238.593 154.64 237.926 155.28C237.286 155.893 236.473 156.2 235.486 156.2ZM238.246 158.84V181H232.646V158.84H238.246Z" fill="white"/>
<path d="M253.499 163.44V174.16C253.499 174.907 253.672 175.453 254.019 175.8C254.392 176.12 255.005 176.28 255.859 176.28H258.459V181H254.939C250.219 181 247.859 178.707 247.859 174.12V163.44H245.219V158.84H247.859V153.36H253.499V158.84H258.459V163.44H253.499Z" fill="white"/>
<path d="M264.247 169.84C264.247 167.6 264.687 165.613 265.567 163.88C266.473 162.147 267.687 160.813 269.207 159.88C270.753 158.947 272.473 158.48 274.367 158.48C276.02 158.48 277.46 158.813 278.687 159.48C279.94 160.147 280.94 160.987 281.687 162V158.84H287.327V181H281.687V177.76C280.967 178.8 279.967 179.667 278.687 180.36C277.433 181.027 275.98 181.36 274.327 181.36C272.46 181.36 270.753 180.88 269.207 179.92C267.687 178.96 266.473 177.613 265.567 175.88C264.687 174.12 264.247 172.107 264.247 169.84ZM281.687 169.92C281.687 168.56 281.42 167.4 280.887 166.44C280.353 165.453 279.633 164.707 278.727 164.2C277.82 163.667 276.847 163.4 275.807 163.4C274.767 163.4 273.807 163.653 272.927 164.16C272.047 164.667 271.327 165.413 270.767 166.4C270.233 167.36 269.967 168.507 269.967 169.84C269.967 171.173 270.233 172.347 270.767 173.36C271.327 174.347 272.047 175.107 272.927 175.64C273.833 176.173 274.793 176.44 275.807 176.44C276.847 176.44 277.82 176.187 278.727 175.68C279.633 175.147 280.353 174.4 280.887 173.44C281.42 172.453 281.687 171.28 281.687 169.92Z" fill="white"/>
<path d="M301.596 151.4V181H295.996V151.4H301.596Z" fill="white"/>
</svg>
