<svg width="305" height="194" viewBox="0 0 305 194" fill="none" xmlns="http://www.w3.org/2000/svg">
<mask id="path-1-outside-1_25_17" maskUnits="userSpaceOnUse" x="0.0399933" y="0.5" width="305" height="194" fill="black">
<rect fill="white" x="0.0399933" y="0.5" width="305" height="194"/>
<path d="M257 90.5V55C257 53.3431 258.343 52 260 52H295.5C297.157 52 298.5 53.3431 298.5 55V90.5C298.5 92.1569 297.157 93.5 295.5 93.5H260C258.343 93.5 257 92.1569 257 90.5Z"/>
<path d="M207 49V5C207 3.34315 208.343 2 210 2H245C246.657 2 248 3.34315 248 5V140.5C248 142.157 246.657 143.5 245 143.5H210C208.343 143.5 207 142.157 207 140.5V96.5C207 94.8431 205.657 93.5 204 93.5H159.5C157.843 93.5 156.5 92.1569 156.5 90.5V55C156.5 53.3431 157.843 52 159.5 52H204C205.657 52 207 50.6569 207 49Z"/>
<path d="M149 1.5H104.093C103.097 1.5 102.166 1.9945 101.608 2.81978L9.66409 138.82C8.31717 140.812 9.74453 143.5 12.1494 143.5H52.9145C53.9065 143.5 54.8343 143.01 55.3932 142.19L61.1068 133.81C61.6656 132.99 62.5935 132.5 63.5855 132.5H99C100.657 132.5 102 131.157 102 129.5V98.5C102 96.8431 100.657 95.5 99 95.5H92.2414C89.8184 95.5 88.395 92.7759 89.7787 90.7868L105.037 68.8527C106.715 66.4411 110.5 67.6282 110.5 70.5658V140.5C110.5 142.157 111.843 143.5 113.5 143.5H149C150.657 143.5 152 142.157 152 140.5V4.5C152 2.84315 150.657 1.5 149 1.5Z"/>
<path d="M20.88 176.68H9.75999L7.91999 182H2.03999L12.08 154.04H18.6L28.64 182H22.72L20.88 176.68ZM19.36 172.2L15.32 160.52L11.28 172.2H19.36Z"/>
<path d="M41.1928 152.4V182H35.5928V152.4H41.1928Z"/>
<path d="M55.5256 163.08C56.2456 162.013 57.2323 161.147 58.4856 160.48C59.7656 159.813 61.219 159.48 62.8456 159.48C64.739 159.48 66.4456 159.947 67.9656 160.88C69.5123 161.813 70.7256 163.147 71.6056 164.88C72.5123 166.587 72.9656 168.573 72.9656 170.84C72.9656 173.107 72.5123 175.12 71.6056 176.88C70.7256 178.613 69.5123 179.96 67.9656 180.92C66.4456 181.88 64.739 182.36 62.8456 182.36C61.1923 182.36 59.739 182.04 58.4856 181.4C57.259 180.733 56.2723 179.88 55.5256 178.84V182H49.9256V152.4H55.5256V163.08ZM67.2456 170.84C67.2456 169.507 66.9656 168.36 66.4056 167.4C65.8723 166.413 65.1523 165.667 64.2456 165.16C63.3656 164.653 62.4056 164.4 61.3656 164.4C60.3523 164.4 59.3923 164.667 58.4856 165.2C57.6056 165.707 56.8856 166.453 56.3256 167.44C55.7923 168.427 55.5256 169.587 55.5256 170.92C55.5256 172.253 55.7923 173.413 56.3256 174.4C56.8856 175.387 57.6056 176.147 58.4856 176.68C59.3923 177.187 60.3523 177.44 61.3656 177.44C62.4056 177.44 63.3656 177.173 64.2456 176.64C65.1523 176.107 65.8723 175.347 66.4056 174.36C66.9656 173.373 67.2456 172.2 67.2456 170.84Z"/>
<path d="M78.795 170.84C78.795 168.6 79.235 166.613 80.115 164.88C81.0217 163.147 82.235 161.813 83.755 160.88C85.3017 159.947 87.0217 159.48 88.915 159.48C90.5683 159.48 92.0083 159.813 93.235 160.48C94.4883 161.147 95.4883 161.987 96.235 163V159.84H101.875V182H96.235V178.76C95.515 179.8 94.515 180.667 93.235 181.36C91.9817 182.027 90.5283 182.36 88.875 182.36C87.0083 182.36 85.3017 181.88 83.755 180.92C82.235 179.96 81.0217 178.613 80.115 176.88C79.235 175.12 78.795 173.107 78.795 170.84ZM96.235 170.92C96.235 169.56 95.9683 168.4 95.435 167.44C94.9017 166.453 94.1817 165.707 93.275 165.2C92.3683 164.667 91.395 164.4 90.355 164.4C89.315 164.4 88.355 164.653 87.475 165.16C86.595 165.667 85.875 166.413 85.315 167.4C84.7817 168.36 84.515 169.507 84.515 170.84C84.515 172.173 84.7817 173.347 85.315 174.36C85.875 175.347 86.595 176.107 87.475 176.64C88.3817 177.173 89.3417 177.44 90.355 177.44C91.395 177.44 92.3683 177.187 93.275 176.68C94.1817 176.147 94.9017 175.4 95.435 174.44C95.9683 173.453 96.235 172.28 96.235 170.92Z"/>
<path d="M141.92 154.08V182H136.32V170.12H124.36V182H118.76V154.08H124.36V165.56H136.32V154.08H141.92Z"/>
<path d="M160.472 182.36C158.339 182.36 156.419 181.893 154.712 180.96C153.005 180 151.659 178.653 150.672 176.92C149.712 175.187 149.232 173.187 149.232 170.92C149.232 168.653 149.725 166.653 150.712 164.92C151.725 163.187 153.099 161.853 154.832 160.92C156.565 159.96 158.499 159.48 160.632 159.48C162.765 159.48 164.699 159.96 166.432 160.92C168.165 161.853 169.525 163.187 170.512 164.92C171.525 166.653 172.032 168.653 172.032 170.92C172.032 173.187 171.512 175.187 170.472 176.92C169.459 178.653 168.072 180 166.312 180.96C164.579 181.893 162.632 182.36 160.472 182.36ZM160.472 177.48C161.485 177.48 162.432 177.24 163.312 176.76C164.219 176.253 164.939 175.507 165.472 174.52C166.005 173.533 166.272 172.333 166.272 170.92C166.272 168.813 165.712 167.2 164.592 166.08C163.499 164.933 162.152 164.36 160.552 164.36C158.952 164.36 157.605 164.933 156.512 166.08C155.445 167.2 154.912 168.813 154.912 170.92C154.912 173.027 155.432 174.653 156.472 175.8C157.539 176.92 158.872 177.48 160.472 177.48Z"/>
<path d="M187.82 182.36C186.006 182.36 184.38 182.04 182.94 181.4C181.5 180.733 180.353 179.84 179.5 178.72C178.673 177.6 178.22 176.36 178.14 175H183.78C183.886 175.853 184.3 176.56 185.02 177.12C185.766 177.68 186.686 177.96 187.78 177.96C188.846 177.96 189.673 177.747 190.26 177.32C190.873 176.893 191.18 176.347 191.18 175.68C191.18 174.96 190.806 174.427 190.06 174.08C189.34 173.707 188.18 173.307 186.58 172.88C184.926 172.48 183.566 172.067 182.5 171.64C181.46 171.213 180.553 170.56 179.78 169.68C179.033 168.8 178.66 167.613 178.66 166.12C178.66 164.893 179.006 163.773 179.7 162.76C180.42 161.747 181.433 160.947 182.74 160.36C184.073 159.773 185.633 159.48 187.42 159.48C190.06 159.48 192.166 160.147 193.74 161.48C195.313 162.787 196.18 164.56 196.34 166.8H190.98C190.9 165.92 190.526 165.227 189.86 164.72C189.22 164.187 188.353 163.92 187.26 163.92C186.246 163.92 185.46 164.107 184.9 164.48C184.366 164.853 184.1 165.373 184.1 166.04C184.1 166.787 184.473 167.36 185.22 167.76C185.966 168.133 187.126 168.52 188.7 168.92C190.3 169.32 191.62 169.733 192.66 170.16C193.7 170.587 194.593 171.253 195.34 172.16C196.113 173.04 196.513 174.213 196.54 175.68C196.54 176.96 196.18 178.107 195.46 179.12C194.766 180.133 193.753 180.933 192.42 181.52C191.113 182.08 189.58 182.36 187.82 182.36Z"/>
<path d="M209.937 163.04C210.657 162.027 211.643 161.187 212.897 160.52C214.177 159.827 215.63 159.48 217.257 159.48C219.15 159.48 220.857 159.947 222.377 160.88C223.923 161.813 225.137 163.147 226.017 164.88C226.923 166.587 227.377 168.573 227.377 170.84C227.377 173.107 226.923 175.12 226.017 176.88C225.137 178.613 223.923 179.96 222.377 180.92C220.857 181.88 219.15 182.36 217.257 182.36C215.63 182.36 214.19 182.027 212.937 181.36C211.71 180.693 210.71 179.853 209.937 178.84V192.56H204.337V159.84H209.937V163.04ZM221.657 170.84C221.657 169.507 221.377 168.36 220.817 167.4C220.283 166.413 219.563 165.667 218.657 165.16C217.777 164.653 216.817 164.4 215.777 164.4C214.763 164.4 213.803 164.667 212.897 165.2C212.017 165.707 211.297 166.453 210.737 167.44C210.203 168.427 209.937 169.587 209.937 170.92C209.937 172.253 210.203 173.413 210.737 174.4C211.297 175.387 212.017 176.147 212.897 176.68C213.803 177.187 214.763 177.44 215.777 177.44C216.817 177.44 217.777 177.173 218.657 176.64C219.563 176.107 220.283 175.347 220.817 174.36C221.377 173.373 221.657 172.2 221.657 170.84Z"/>
<path d="M237.486 157.2C236.499 157.2 235.673 156.893 235.006 156.28C234.366 155.64 234.046 154.853 234.046 153.92C234.046 152.987 234.366 152.213 235.006 151.6C235.673 150.96 236.499 150.64 237.486 150.64C238.473 150.64 239.286 150.96 239.926 151.6C240.593 152.213 240.926 152.987 240.926 153.92C240.926 154.853 240.593 155.64 239.926 156.28C239.286 156.893 238.473 157.2 237.486 157.2ZM240.246 159.84V182H234.646V159.84H240.246Z"/>
<path d="M255.499 164.44V175.16C255.499 175.907 255.672 176.453 256.019 176.8C256.392 177.12 257.005 177.28 257.859 177.28H260.459V182H256.939C252.219 182 249.859 179.707 249.859 175.12V164.44H247.219V159.84H249.859V154.36H255.499V159.84H260.459V164.44H255.499Z"/>
<path d="M266.247 170.84C266.247 168.6 266.687 166.613 267.567 164.88C268.473 163.147 269.687 161.813 271.207 160.88C272.753 159.947 274.473 159.48 276.367 159.48C278.02 159.48 279.46 159.813 280.687 160.48C281.94 161.147 282.94 161.987 283.687 163V159.84H289.327V182H283.687V178.76C282.967 179.8 281.967 180.667 280.687 181.36C279.433 182.027 277.98 182.36 276.327 182.36C274.46 182.36 272.753 181.88 271.207 180.92C269.687 179.96 268.473 178.613 267.567 176.88C266.687 175.12 266.247 173.107 266.247 170.84ZM283.687 170.92C283.687 169.56 283.42 168.4 282.887 167.44C282.353 166.453 281.633 165.707 280.727 165.2C279.82 164.667 278.847 164.4 277.807 164.4C276.767 164.4 275.807 164.653 274.927 165.16C274.047 165.667 273.327 166.413 272.767 167.4C272.233 168.36 271.967 169.507 271.967 170.84C271.967 172.173 272.233 173.347 272.767 174.36C273.327 175.347 274.047 176.107 274.927 176.64C275.833 177.173 276.793 177.44 277.807 177.44C278.847 177.44 279.82 177.187 280.727 176.68C281.633 176.147 282.353 175.4 282.887 174.44C283.42 173.453 283.687 172.28 283.687 170.92Z"/>
<path d="M303.596 152.4V182H297.996V152.4H303.596Z"/>
</mask>
<path d="M257 90.5V55C257 53.3431 258.343 52 260 52H295.5C297.157 52 298.5 53.3431 298.5 55V90.5C298.5 92.1569 297.157 93.5 295.5 93.5H260C258.343 93.5 257 92.1569 257 90.5Z" fill="#CE0002"/>
<path d="M207 49V5C207 3.34315 208.343 2 210 2H245C246.657 2 248 3.34315 248 5V140.5C248 142.157 246.657 143.5 245 143.5H210C208.343 143.5 207 142.157 207 140.5V96.5C207 94.8431 205.657 93.5 204 93.5H159.5C157.843 93.5 156.5 92.1569 156.5 90.5V55C156.5 53.3431 157.843 52 159.5 52H204C205.657 52 207 50.6569 207 49Z" fill="#CD0104"/>
<path d="M149 1.5H104.093C103.097 1.5 102.166 1.9945 101.608 2.81978L9.66409 138.82C8.31717 140.812 9.74453 143.5 12.1494 143.5H52.9145C53.9065 143.5 54.8343 143.01 55.3932 142.19L61.1068 133.81C61.6656 132.99 62.5935 132.5 63.5855 132.5H99C100.657 132.5 102 131.157 102 129.5V98.5C102 96.8431 100.657 95.5 99 95.5H92.2414C89.8184 95.5 88.395 92.7759 89.7787 90.7868L105.037 68.8527C106.715 66.4411 110.5 67.6282 110.5 70.5658V140.5C110.5 142.157 111.843 143.5 113.5 143.5H149C150.657 143.5 152 142.157 152 140.5V4.5C152 2.84315 150.657 1.5 149 1.5Z" fill="#0178F9"/>
<path d="M20.88 176.68H9.75999L7.91999 182H2.03999L12.08 154.04H18.6L28.64 182H22.72L20.88 176.68ZM19.36 172.2L15.32 160.52L11.28 172.2H19.36Z" fill="black"/>
<path d="M41.1928 152.4V182H35.5928V152.4H41.1928Z" fill="black"/>
<path d="M55.5256 163.08C56.2456 162.013 57.2323 161.147 58.4856 160.48C59.7656 159.813 61.219 159.48 62.8456 159.48C64.739 159.48 66.4456 159.947 67.9656 160.88C69.5123 161.813 70.7256 163.147 71.6056 164.88C72.5123 166.587 72.9656 168.573 72.9656 170.84C72.9656 173.107 72.5123 175.12 71.6056 176.88C70.7256 178.613 69.5123 179.96 67.9656 180.92C66.4456 181.88 64.739 182.36 62.8456 182.36C61.1923 182.36 59.739 182.04 58.4856 181.4C57.259 180.733 56.2723 179.88 55.5256 178.84V182H49.9256V152.4H55.5256V163.08ZM67.2456 170.84C67.2456 169.507 66.9656 168.36 66.4056 167.4C65.8723 166.413 65.1523 165.667 64.2456 165.16C63.3656 164.653 62.4056 164.4 61.3656 164.4C60.3523 164.4 59.3923 164.667 58.4856 165.2C57.6056 165.707 56.8856 166.453 56.3256 167.44C55.7923 168.427 55.5256 169.587 55.5256 170.92C55.5256 172.253 55.7923 173.413 56.3256 174.4C56.8856 175.387 57.6056 176.147 58.4856 176.68C59.3923 177.187 60.3523 177.44 61.3656 177.44C62.4056 177.44 63.3656 177.173 64.2456 176.64C65.1523 176.107 65.8723 175.347 66.4056 174.36C66.9656 173.373 67.2456 172.2 67.2456 170.84Z" fill="black"/>
<path d="M78.795 170.84C78.795 168.6 79.235 166.613 80.115 164.88C81.0217 163.147 82.235 161.813 83.755 160.88C85.3017 159.947 87.0217 159.48 88.915 159.48C90.5683 159.48 92.0083 159.813 93.235 160.48C94.4883 161.147 95.4883 161.987 96.235 163V159.84H101.875V182H96.235V178.76C95.515 179.8 94.515 180.667 93.235 181.36C91.9817 182.027 90.5283 182.36 88.875 182.36C87.0083 182.36 85.3017 181.88 83.755 180.92C82.235 179.96 81.0217 178.613 80.115 176.88C79.235 175.12 78.795 173.107 78.795 170.84ZM96.235 170.92C96.235 169.56 95.9683 168.4 95.435 167.44C94.9017 166.453 94.1817 165.707 93.275 165.2C92.3683 164.667 91.395 164.4 90.355 164.4C89.315 164.4 88.355 164.653 87.475 165.16C86.595 165.667 85.875 166.413 85.315 167.4C84.7817 168.36 84.515 169.507 84.515 170.84C84.515 172.173 84.7817 173.347 85.315 174.36C85.875 175.347 86.595 176.107 87.475 176.64C88.3817 177.173 89.3417 177.44 90.355 177.44C91.395 177.44 92.3683 177.187 93.275 176.68C94.1817 176.147 94.9017 175.4 95.435 174.44C95.9683 173.453 96.235 172.28 96.235 170.92Z" fill="black"/>
<path d="M141.92 154.08V182H136.32V170.12H124.36V182H118.76V154.08H124.36V165.56H136.32V154.08H141.92Z" fill="black"/>
<path d="M160.472 182.36C158.339 182.36 156.419 181.893 154.712 180.96C153.005 180 151.659 178.653 150.672 176.92C149.712 175.187 149.232 173.187 149.232 170.92C149.232 168.653 149.725 166.653 150.712 164.92C151.725 163.187 153.099 161.853 154.832 160.92C156.565 159.96 158.499 159.48 160.632 159.48C162.765 159.48 164.699 159.96 166.432 160.92C168.165 161.853 169.525 163.187 170.512 164.92C171.525 166.653 172.032 168.653 172.032 170.92C172.032 173.187 171.512 175.187 170.472 176.92C169.459 178.653 168.072 180 166.312 180.96C164.579 181.893 162.632 182.36 160.472 182.36ZM160.472 177.48C161.485 177.48 162.432 177.24 163.312 176.76C164.219 176.253 164.939 175.507 165.472 174.52C166.005 173.533 166.272 172.333 166.272 170.92C166.272 168.813 165.712 167.2 164.592 166.08C163.499 164.933 162.152 164.36 160.552 164.36C158.952 164.36 157.605 164.933 156.512 166.08C155.445 167.2 154.912 168.813 154.912 170.92C154.912 173.027 155.432 174.653 156.472 175.8C157.539 176.92 158.872 177.48 160.472 177.48Z" fill="black"/>
<path d="M187.82 182.36C186.006 182.36 184.38 182.04 182.94 181.4C181.5 180.733 180.353 179.84 179.5 178.72C178.673 177.6 178.22 176.36 178.14 175H183.78C183.886 175.853 184.3 176.56 185.02 177.12C185.766 177.68 186.686 177.96 187.78 177.96C188.846 177.96 189.673 177.747 190.26 177.32C190.873 176.893 191.18 176.347 191.18 175.68C191.18 174.96 190.806 174.427 190.06 174.08C189.34 173.707 188.18 173.307 186.58 172.88C184.926 172.48 183.566 172.067 182.5 171.64C181.46 171.213 180.553 170.56 179.78 169.68C179.033 168.8 178.66 167.613 178.66 166.12C178.66 164.893 179.006 163.773 179.7 162.76C180.42 161.747 181.433 160.947 182.74 160.36C184.073 159.773 185.633 159.48 187.42 159.48C190.06 159.48 192.166 160.147 193.74 161.48C195.313 162.787 196.18 164.56 196.34 166.8H190.98C190.9 165.92 190.526 165.227 189.86 164.72C189.22 164.187 188.353 163.92 187.26 163.92C186.246 163.92 185.46 164.107 184.9 164.48C184.366 164.853 184.1 165.373 184.1 166.04C184.1 166.787 184.473 167.36 185.22 167.76C185.966 168.133 187.126 168.52 188.7 168.92C190.3 169.32 191.62 169.733 192.66 170.16C193.7 170.587 194.593 171.253 195.34 172.16C196.113 173.04 196.513 174.213 196.54 175.68C196.54 176.96 196.18 178.107 195.46 179.12C194.766 180.133 193.753 180.933 192.42 181.52C191.113 182.08 189.58 182.36 187.82 182.36Z" fill="black"/>
<path d="M209.937 163.04C210.657 162.027 211.643 161.187 212.897 160.52C214.177 159.827 215.63 159.48 217.257 159.48C219.15 159.48 220.857 159.947 222.377 160.88C223.923 161.813 225.137 163.147 226.017 164.88C226.923 166.587 227.377 168.573 227.377 170.84C227.377 173.107 226.923 175.12 226.017 176.88C225.137 178.613 223.923 179.96 222.377 180.92C220.857 181.88 219.15 182.36 217.257 182.36C215.63 182.36 214.19 182.027 212.937 181.36C211.71 180.693 210.71 179.853 209.937 178.84V192.56H204.337V159.84H209.937V163.04ZM221.657 170.84C221.657 169.507 221.377 168.36 220.817 167.4C220.283 166.413 219.563 165.667 218.657 165.16C217.777 164.653 216.817 164.4 215.777 164.4C214.763 164.4 213.803 164.667 212.897 165.2C212.017 165.707 211.297 166.453 210.737 167.44C210.203 168.427 209.937 169.587 209.937 170.92C209.937 172.253 210.203 173.413 210.737 174.4C211.297 175.387 212.017 176.147 212.897 176.68C213.803 177.187 214.763 177.44 215.777 177.44C216.817 177.44 217.777 177.173 218.657 176.64C219.563 176.107 220.283 175.347 220.817 174.36C221.377 173.373 221.657 172.2 221.657 170.84Z" fill="black"/>
<path d="M237.486 157.2C236.499 157.2 235.673 156.893 235.006 156.28C234.366 155.64 234.046 154.853 234.046 153.92C234.046 152.987 234.366 152.213 235.006 151.6C235.673 150.96 236.499 150.64 237.486 150.64C238.473 150.64 239.286 150.96 239.926 151.6C240.593 152.213 240.926 152.987 240.926 153.92C240.926 154.853 240.593 155.64 239.926 156.28C239.286 156.893 238.473 157.2 237.486 157.2ZM240.246 159.84V182H234.646V159.84H240.246Z" fill="black"/>
<path d="M255.499 164.44V175.16C255.499 175.907 255.672 176.453 256.019 176.8C256.392 177.12 257.005 177.28 257.859 177.28H260.459V182H256.939C252.219 182 249.859 179.707 249.859 175.12V164.44H247.219V159.84H249.859V154.36H255.499V159.84H260.459V164.44H255.499Z" fill="black"/>
<path d="M266.247 170.84C266.247 168.6 266.687 166.613 267.567 164.88C268.473 163.147 269.687 161.813 271.207 160.88C272.753 159.947 274.473 159.48 276.367 159.48C278.02 159.48 279.46 159.813 280.687 160.48C281.94 161.147 282.94 161.987 283.687 163V159.84H289.327V182H283.687V178.76C282.967 179.8 281.967 180.667 280.687 181.36C279.433 182.027 277.98 182.36 276.327 182.36C274.46 182.36 272.753 181.88 271.207 180.92C269.687 179.96 268.473 178.613 267.567 176.88C266.687 175.12 266.247 173.107 266.247 170.84ZM283.687 170.92C283.687 169.56 283.42 168.4 282.887 167.44C282.353 166.453 281.633 165.707 280.727 165.2C279.82 164.667 278.847 164.4 277.807 164.4C276.767 164.4 275.807 164.653 274.927 165.16C274.047 165.667 273.327 166.413 272.767 167.4C272.233 168.36 271.967 169.507 271.967 170.84C271.967 172.173 272.233 173.347 272.767 174.36C273.327 175.347 274.047 176.107 274.927 176.64C275.833 177.173 276.793 177.44 277.807 177.44C278.847 177.44 279.82 177.187 280.727 176.68C281.633 176.147 282.353 175.4 282.887 174.44C283.42 173.453 283.687 172.28 283.687 170.92Z" fill="black"/>
<path d="M303.596 152.4V182H297.996V152.4H303.596Z" fill="black"/>
<path d="M257 90.5V55C257 53.3431 258.343 52 260 52H295.5C297.157 52 298.5 53.3431 298.5 55V90.5C298.5 92.1569 297.157 93.5 295.5 93.5H260C258.343 93.5 257 92.1569 257 90.5Z" stroke="white" stroke-width="2" mask="url(#path-1-outside-1_25_17)"/>
<path d="M207 49V5C207 3.34315 208.343 2 210 2H245C246.657 2 248 3.34315 248 5V140.5C248 142.157 246.657 143.5 245 143.5H210C208.343 143.5 207 142.157 207 140.5V96.5C207 94.8431 205.657 93.5 204 93.5H159.5C157.843 93.5 156.5 92.1569 156.5 90.5V55C156.5 53.3431 157.843 52 159.5 52H204C205.657 52 207 50.6569 207 49Z" stroke="white" stroke-width="2" mask="url(#path-1-outside-1_25_17)"/>
<path d="M149 1.5H104.093C103.097 1.5 102.166 1.9945 101.608 2.81978L9.66409 138.82C8.31717 140.812 9.74453 143.5 12.1494 143.5H52.9145C53.9065 143.5 54.8343 143.01 55.3932 142.19L61.1068 133.81C61.6656 132.99 62.5935 132.5 63.5855 132.5H99C100.657 132.5 102 131.157 102 129.5V98.5C102 96.8431 100.657 95.5 99 95.5H92.2414C89.8184 95.5 88.395 92.7759 89.7787 90.7868L105.037 68.8527C106.715 66.4411 110.5 67.6282 110.5 70.5658V140.5C110.5 142.157 111.843 143.5 113.5 143.5H149C150.657 143.5 152 142.157 152 140.5V4.5C152 2.84315 150.657 1.5 149 1.5Z" stroke="white" stroke-width="2" mask="url(#path-1-outside-1_25_17)"/>
<path d="M20.88 176.68H9.75999L7.91999 182H2.03999L12.08 154.04H18.6L28.64 182H22.72L20.88 176.68ZM19.36 172.2L15.32 160.52L11.28 172.2H19.36Z" stroke="white" stroke-width="2" mask="url(#path-1-outside-1_25_17)"/>
<path d="M41.1928 152.4V182H35.5928V152.4H41.1928Z" stroke="white" stroke-width="2" mask="url(#path-1-outside-1_25_17)"/>
<path d="M55.5256 163.08C56.2456 162.013 57.2323 161.147 58.4856 160.48C59.7656 159.813 61.219 159.48 62.8456 159.48C64.739 159.48 66.4456 159.947 67.9656 160.88C69.5123 161.813 70.7256 163.147 71.6056 164.88C72.5123 166.587 72.9656 168.573 72.9656 170.84C72.9656 173.107 72.5123 175.12 71.6056 176.88C70.7256 178.613 69.5123 179.96 67.9656 180.92C66.4456 181.88 64.739 182.36 62.8456 182.36C61.1923 182.36 59.739 182.04 58.4856 181.4C57.259 180.733 56.2723 179.88 55.5256 178.84V182H49.9256V152.4H55.5256V163.08ZM67.2456 170.84C67.2456 169.507 66.9656 168.36 66.4056 167.4C65.8723 166.413 65.1523 165.667 64.2456 165.16C63.3656 164.653 62.4056 164.4 61.3656 164.4C60.3523 164.4 59.3923 164.667 58.4856 165.2C57.6056 165.707 56.8856 166.453 56.3256 167.44C55.7923 168.427 55.5256 169.587 55.5256 170.92C55.5256 172.253 55.7923 173.413 56.3256 174.4C56.8856 175.387 57.6056 176.147 58.4856 176.68C59.3923 177.187 60.3523 177.44 61.3656 177.44C62.4056 177.44 63.3656 177.173 64.2456 176.64C65.1523 176.107 65.8723 175.347 66.4056 174.36C66.9656 173.373 67.2456 172.2 67.2456 170.84Z" stroke="white" stroke-width="2" mask="url(#path-1-outside-1_25_17)"/>
<path d="M78.795 170.84C78.795 168.6 79.235 166.613 80.115 164.88C81.0217 163.147 82.235 161.813 83.755 160.88C85.3017 159.947 87.0217 159.48 88.915 159.48C90.5683 159.48 92.0083 159.813 93.235 160.48C94.4883 161.147 95.4883 161.987 96.235 163V159.84H101.875V182H96.235V178.76C95.515 179.8 94.515 180.667 93.235 181.36C91.9817 182.027 90.5283 182.36 88.875 182.36C87.0083 182.36 85.3017 181.88 83.755 180.92C82.235 179.96 81.0217 178.613 80.115 176.88C79.235 175.12 78.795 173.107 78.795 170.84ZM96.235 170.92C96.235 169.56 95.9683 168.4 95.435 167.44C94.9017 166.453 94.1817 165.707 93.275 165.2C92.3683 164.667 91.395 164.4 90.355 164.4C89.315 164.4 88.355 164.653 87.475 165.16C86.595 165.667 85.875 166.413 85.315 167.4C84.7817 168.36 84.515 169.507 84.515 170.84C84.515 172.173 84.7817 173.347 85.315 174.36C85.875 175.347 86.595 176.107 87.475 176.64C88.3817 177.173 89.3417 177.44 90.355 177.44C91.395 177.44 92.3683 177.187 93.275 176.68C94.1817 176.147 94.9017 175.4 95.435 174.44C95.9683 173.453 96.235 172.28 96.235 170.92Z" stroke="white" stroke-width="2" mask="url(#path-1-outside-1_25_17)"/>
<path d="M141.92 154.08V182H136.32V170.12H124.36V182H118.76V154.08H124.36V165.56H136.32V154.08H141.92Z" stroke="white" stroke-width="2" mask="url(#path-1-outside-1_25_17)"/>
<path d="M160.472 182.36C158.339 182.36 156.419 181.893 154.712 180.96C153.005 180 151.659 178.653 150.672 176.92C149.712 175.187 149.232 173.187 149.232 170.92C149.232 168.653 149.725 166.653 150.712 164.92C151.725 163.187 153.099 161.853 154.832 160.92C156.565 159.96 158.499 159.48 160.632 159.48C162.765 159.48 164.699 159.96 166.432 160.92C168.165 161.853 169.525 163.187 170.512 164.92C171.525 166.653 172.032 168.653 172.032 170.92C172.032 173.187 171.512 175.187 170.472 176.92C169.459 178.653 168.072 180 166.312 180.96C164.579 181.893 162.632 182.36 160.472 182.36ZM160.472 177.48C161.485 177.48 162.432 177.24 163.312 176.76C164.219 176.253 164.939 175.507 165.472 174.52C166.005 173.533 166.272 172.333 166.272 170.92C166.272 168.813 165.712 167.2 164.592 166.08C163.499 164.933 162.152 164.36 160.552 164.36C158.952 164.36 157.605 164.933 156.512 166.08C155.445 167.2 154.912 168.813 154.912 170.92C154.912 173.027 155.432 174.653 156.472 175.8C157.539 176.92 158.872 177.48 160.472 177.48Z" stroke="white" stroke-width="2" mask="url(#path-1-outside-1_25_17)"/>
<path d="M187.82 182.36C186.006 182.36 184.38 182.04 182.94 181.4C181.5 180.733 180.353 179.84 179.5 178.72C178.673 177.6 178.22 176.36 178.14 175H183.78C183.886 175.853 184.3 176.56 185.02 177.12C185.766 177.68 186.686 177.96 187.78 177.96C188.846 177.96 189.673 177.747 190.26 177.32C190.873 176.893 191.18 176.347 191.18 175.68C191.18 174.96 190.806 174.427 190.06 174.08C189.34 173.707 188.18 173.307 186.58 172.88C184.926 172.48 183.566 172.067 182.5 171.64C181.46 171.213 180.553 170.56 179.78 169.68C179.033 168.8 178.66 167.613 178.66 166.12C178.66 164.893 179.006 163.773 179.7 162.76C180.42 161.747 181.433 160.947 182.74 160.36C184.073 159.773 185.633 159.48 187.42 159.48C190.06 159.48 192.166 160.147 193.74 161.48C195.313 162.787 196.18 164.56 196.34 166.8H190.98C190.9 165.92 190.526 165.227 189.86 164.72C189.22 164.187 188.353 163.92 187.26 163.92C186.246 163.92 185.46 164.107 184.9 164.48C184.366 164.853 184.1 165.373 184.1 166.04C184.1 166.787 184.473 167.36 185.22 167.76C185.966 168.133 187.126 168.52 188.7 168.92C190.3 169.32 191.62 169.733 192.66 170.16C193.7 170.587 194.593 171.253 195.34 172.16C196.113 173.04 196.513 174.213 196.54 175.68C196.54 176.96 196.18 178.107 195.46 179.12C194.766 180.133 193.753 180.933 192.42 181.52C191.113 182.08 189.58 182.36 187.82 182.36Z" stroke="white" stroke-width="2" mask="url(#path-1-outside-1_25_17)"/>
<path d="M209.937 163.04C210.657 162.027 211.643 161.187 212.897 160.52C214.177 159.827 215.63 159.48 217.257 159.48C219.15 159.48 220.857 159.947 222.377 160.88C223.923 161.813 225.137 163.147 226.017 164.88C226.923 166.587 227.377 168.573 227.377 170.84C227.377 173.107 226.923 175.12 226.017 176.88C225.137 178.613 223.923 179.96 222.377 180.92C220.857 181.88 219.15 182.36 217.257 182.36C215.63 182.36 214.19 182.027 212.937 181.36C211.71 180.693 210.71 179.853 209.937 178.84V192.56H204.337V159.84H209.937V163.04ZM221.657 170.84C221.657 169.507 221.377 168.36 220.817 167.4C220.283 166.413 219.563 165.667 218.657 165.16C217.777 164.653 216.817 164.4 215.777 164.4C214.763 164.4 213.803 164.667 212.897 165.2C212.017 165.707 211.297 166.453 210.737 167.44C210.203 168.427 209.937 169.587 209.937 170.92C209.937 172.253 210.203 173.413 210.737 174.4C211.297 175.387 212.017 176.147 212.897 176.68C213.803 177.187 214.763 177.44 215.777 177.44C216.817 177.44 217.777 177.173 218.657 176.64C219.563 176.107 220.283 175.347 220.817 174.36C221.377 173.373 221.657 172.2 221.657 170.84Z" stroke="white" stroke-width="2" mask="url(#path-1-outside-1_25_17)"/>
<path d="M237.486 157.2C236.499 157.2 235.673 156.893 235.006 156.28C234.366 155.64 234.046 154.853 234.046 153.92C234.046 152.987 234.366 152.213 235.006 151.6C235.673 150.96 236.499 150.64 237.486 150.64C238.473 150.64 239.286 150.96 239.926 151.6C240.593 152.213 240.926 152.987 240.926 153.92C240.926 154.853 240.593 155.64 239.926 156.28C239.286 156.893 238.473 157.2 237.486 157.2ZM240.246 159.84V182H234.646V159.84H240.246Z" stroke="white" stroke-width="2" mask="url(#path-1-outside-1_25_17)"/>
<path d="M255.499 164.44V175.16C255.499 175.907 255.672 176.453 256.019 176.8C256.392 177.12 257.005 177.28 257.859 177.28H260.459V182H256.939C252.219 182 249.859 179.707 249.859 175.12V164.44H247.219V159.84H249.859V154.36H255.499V159.84H260.459V164.44H255.499Z" stroke="white" stroke-width="2" mask="url(#path-1-outside-1_25_17)"/>
<path d="M266.247 170.84C266.247 168.6 266.687 166.613 267.567 164.88C268.473 163.147 269.687 161.813 271.207 160.88C272.753 159.947 274.473 159.48 276.367 159.48C278.02 159.48 279.46 159.813 280.687 160.48C281.94 161.147 282.94 161.987 283.687 163V159.84H289.327V182H283.687V178.76C282.967 179.8 281.967 180.667 280.687 181.36C279.433 182.027 277.98 182.36 276.327 182.36C274.46 182.36 272.753 181.88 271.207 180.92C269.687 179.96 268.473 178.613 267.567 176.88C266.687 175.12 266.247 173.107 266.247 170.84ZM283.687 170.92C283.687 169.56 283.42 168.4 282.887 167.44C282.353 166.453 281.633 165.707 280.727 165.2C279.82 164.667 278.847 164.4 277.807 164.4C276.767 164.4 275.807 164.653 274.927 165.16C274.047 165.667 273.327 166.413 272.767 167.4C272.233 168.36 271.967 169.507 271.967 170.84C271.967 172.173 272.233 173.347 272.767 174.36C273.327 175.347 274.047 176.107 274.927 176.64C275.833 177.173 276.793 177.44 277.807 177.44C278.847 177.44 279.82 177.187 280.727 176.68C281.633 176.147 282.353 175.4 282.887 174.44C283.42 173.453 283.687 172.28 283.687 170.92Z" stroke="white" stroke-width="2" mask="url(#path-1-outside-1_25_17)"/>
<path d="M303.596 152.4V182H297.996V152.4H303.596Z" stroke="white" stroke-width="2" mask="url(#path-1-outside-1_25_17)"/>
</svg>
