<svg width="418" height="418" viewBox="0 0 418 418" fill="none" xmlns="http://www.w3.org/2000/svg">
<g filter="url(#filter0_d_138_27)">
<circle cx="209" cy="209" r="177" fill="white"/>
</g>
<path d="M305.5 192V156.5C305.5 154.843 306.843 153.5 308.5 153.5H344C345.657 153.5 347 154.843 347 156.5V192C347 193.657 345.657 195 344 195H308.5C306.843 195 305.5 193.657 305.5 192Z" fill="#FF414D"/>
<path d="M255.5 150.5V106.5C255.5 104.843 256.843 103.5 258.5 103.5H293.5C295.157 103.5 296.5 104.843 296.5 106.5V242C296.5 243.657 295.157 245 293.5 245H258.5C256.843 245 255.5 243.657 255.5 242V198C255.5 196.343 254.157 195 252.5 195H208C206.343 195 205 193.657 205 192V156.5C205 154.843 206.343 153.5 208 153.5H252.5C254.157 153.5 255.5 152.157 255.5 150.5Z" fill="#FF414D"/>
<path d="M197.5 103H152.593C151.597 103 150.666 103.494 150.108 104.32L58.1641 240.32C56.8172 242.312 58.2445 245 60.6494 245H101.414C102.406 245 103.334 244.51 103.893 243.69L109.607 235.31C110.166 234.49 111.094 234 112.086 234H147.5C149.157 234 150.5 232.657 150.5 231V200C150.5 198.343 149.157 197 147.5 197H140.741C138.318 197 136.895 194.276 138.279 192.287L153.537 170.353C155.215 167.941 159 169.128 159 172.066V242C159 243.657 160.343 245 162 245H197.5C199.157 245 200.5 243.657 200.5 242V106C200.5 104.343 199.157 103 197.5 103Z" fill="#0047FF"/>
<path d="M197.92 261.08V289H192.32V277.12H180.36V289H174.76V261.08H180.36V272.56H192.32V261.08H197.92ZM243.82 289.36C242.006 289.36 240.38 289.04 238.94 288.4C237.5 287.733 236.353 286.84 235.5 285.72C234.673 284.6 234.22 283.36 234.14 282H239.78C239.886 282.853 240.3 283.56 241.02 284.12C241.766 284.68 242.686 284.96 243.78 284.96C244.846 284.96 245.673 284.747 246.26 284.32C246.873 283.893 247.18 283.347 247.18 282.68C247.18 281.96 246.806 281.427 246.06 281.08C245.34 280.707 244.18 280.307 242.58 279.88C240.926 279.48 239.566 279.067 238.5 278.64C237.46 278.213 236.553 277.56 235.78 276.68C235.033 275.8 234.66 274.613 234.66 273.12C234.66 271.893 235.006 270.773 235.7 269.76C236.42 268.747 237.433 267.947 238.74 267.36C240.073 266.773 241.633 266.48 243.42 266.48C246.06 266.48 248.166 267.147 249.74 268.48C251.313 269.787 252.18 271.56 252.34 273.8H246.98C246.9 272.92 246.526 272.227 245.86 271.72C245.22 271.187 244.353 270.92 243.26 270.92C242.246 270.92 241.46 271.107 240.9 271.48C240.366 271.853 240.1 272.373 240.1 273.04C240.1 273.787 240.473 274.36 241.22 274.76C241.966 275.133 243.126 275.52 244.7 275.92C246.3 276.32 247.62 276.733 248.66 277.16C249.7 277.587 250.593 278.253 251.34 279.16C252.113 280.04 252.513 281.213 252.54 282.68C252.54 283.96 252.18 285.107 251.46 286.12C250.766 287.133 249.753 287.933 248.42 288.52C247.113 289.08 245.58 289.36 243.82 289.36ZM265.937 270.04C266.657 269.027 267.643 268.187 268.897 267.52C270.177 266.827 271.63 266.48 273.257 266.48C275.15 266.48 276.857 266.947 278.377 267.88C279.923 268.813 281.137 270.147 282.017 271.88C282.923 273.587 283.377 275.573 283.377 277.84C283.377 280.107 282.923 282.12 282.017 283.88C281.137 285.613 279.923 286.96 278.377 287.92C276.857 288.88 275.15 289.36 273.257 289.36C271.63 289.36 270.19 289.027 268.937 288.36C267.71 287.693 266.71 286.853 265.937 285.84V299.56H260.337V266.84H265.937V270.04ZM277.657 277.84C277.657 276.507 277.377 275.36 276.817 274.4C276.283 273.413 275.563 272.667 274.657 272.16C273.777 271.653 272.817 271.4 271.777 271.4C270.763 271.4 269.803 271.667 268.897 272.2C268.017 272.707 267.297 273.453 266.737 274.44C266.203 275.427 265.937 276.587 265.937 277.92C265.937 279.253 266.203 280.413 266.737 281.4C267.297 282.387 268.017 283.147 268.897 283.68C269.803 284.187 270.763 284.44 271.777 284.44C272.817 284.44 273.777 284.173 274.657 283.64C275.563 283.107 276.283 282.347 276.817 281.36C277.377 280.373 277.657 279.2 277.657 277.84ZM293.486 264.2C292.499 264.2 291.673 263.893 291.006 263.28C290.366 262.64 290.046 261.853 290.046 260.92C290.046 259.987 290.366 259.213 291.006 258.6C291.673 257.96 292.499 257.64 293.486 257.64C294.473 257.64 295.286 257.96 295.926 258.6C296.593 259.213 296.926 259.987 296.926 260.92C296.926 261.853 296.593 262.64 295.926 263.28C295.286 263.893 294.473 264.2 293.486 264.2ZM296.246 266.84V289H290.646V266.84H296.246ZM311.499 271.44V282.16C311.499 282.907 311.672 283.453 312.019 283.8C312.392 284.12 313.005 284.28 313.859 284.28H316.459V289H312.939C308.219 289 305.859 286.707 305.859 282.12V271.44H303.219V266.84H305.859V261.36H311.499V266.84H316.459V271.44H311.499ZM322.247 277.84C322.247 275.6 322.687 273.613 323.567 271.88C324.473 270.147 325.687 268.813 327.207 267.88C328.753 266.947 330.473 266.48 332.367 266.48C334.02 266.48 335.46 266.813 336.687 267.48C337.94 268.147 338.94 268.987 339.687 270V266.84H345.327V289H339.687V285.76C338.967 286.8 337.967 287.667 336.687 288.36C335.433 289.027 333.98 289.36 332.327 289.36C330.46 289.36 328.753 288.88 327.207 287.92C325.687 286.96 324.473 285.613 323.567 283.88C322.687 282.12 322.247 280.107 322.247 277.84ZM339.687 277.92C339.687 276.56 339.42 275.4 338.887 274.44C338.353 273.453 337.633 272.707 336.727 272.2C335.82 271.667 334.847 271.4 333.807 271.4C332.767 271.4 331.807 271.653 330.927 272.16C330.047 272.667 329.327 273.413 328.767 274.4C328.233 275.36 327.967 276.507 327.967 277.84C327.967 279.173 328.233 280.347 328.767 281.36C329.327 282.347 330.047 283.107 330.927 283.64C331.833 284.173 332.793 284.44 333.807 284.44C334.847 284.44 335.82 284.187 336.727 283.68C337.633 283.147 338.353 282.4 338.887 281.44C339.42 280.453 339.687 279.28 339.687 277.92ZM359.596 259.4V289H353.996V259.4H359.596Z" fill="black"/>
<path d="M216.472 289.36C214.339 289.36 212.419 288.893 210.712 287.96C209.005 287 207.659 285.653 206.672 283.92C205.712 282.187 205.232 280.187 205.232 277.92C205.232 275.653 205.725 273.653 206.712 271.92C207.725 270.187 209.099 268.853 210.832 267.92C212.565 266.96 214.499 266.48 216.632 266.48C218.765 266.48 220.699 266.96 222.432 267.92C224.165 268.853 225.525 270.187 226.512 271.92C227.525 273.653 228.032 275.653 228.032 277.92C228.032 280.187 227.512 282.187 226.472 283.92C225.459 285.653 224.072 287 222.312 287.96C220.579 288.893 218.632 289.36 216.472 289.36ZM216.472 284.48C217.485 284.48 218.432 284.24 219.312 283.76C220.219 283.253 220.939 282.507 221.472 281.52C222.005 280.533 222.272 279.333 222.272 277.92C222.272 275.813 221.712 274.2 220.592 273.08C219.499 271.933 218.152 271.36 216.552 271.36C214.952 271.36 213.605 271.933 212.512 273.08C211.445 274.2 210.912 275.813 210.912 277.92C210.912 280.027 211.432 281.653 212.472 282.8C213.539 283.92 214.872 284.48 216.472 284.48Z" fill="#FF414D"/>
<path d="M74.88 283.68H63.76L61.92 289H56.04L66.08 261.04H72.6L82.64 289H76.72L74.88 283.68ZM73.36 279.2L69.32 267.52L65.28 279.2H73.36ZM109.526 270.08C110.246 269.013 111.232 268.147 112.486 267.48C113.766 266.813 115.219 266.48 116.846 266.48C118.739 266.48 120.446 266.947 121.966 267.88C123.512 268.813 124.726 270.147 125.606 271.88C126.512 273.587 126.966 275.573 126.966 277.84C126.966 280.107 126.512 282.12 125.606 283.88C124.726 285.613 123.512 286.96 121.966 287.92C120.446 288.88 118.739 289.36 116.846 289.36C115.192 289.36 113.739 289.04 112.486 288.4C111.259 287.733 110.272 286.88 109.526 285.84V289H103.926V259.4H109.526V270.08ZM121.246 277.84C121.246 276.507 120.966 275.36 120.406 274.4C119.872 273.413 119.152 272.667 118.246 272.16C117.366 271.653 116.406 271.4 115.366 271.4C114.352 271.4 113.392 271.667 112.486 272.2C111.606 272.707 110.886 273.453 110.326 274.44C109.792 275.427 109.526 276.587 109.526 277.92C109.526 279.253 109.792 280.413 110.326 281.4C110.886 282.387 111.606 283.147 112.486 283.68C113.392 284.187 114.352 284.44 115.366 284.44C116.406 284.44 117.366 284.173 118.246 283.64C119.152 283.107 119.872 282.347 120.406 281.36C120.966 280.373 121.246 279.2 121.246 277.84ZM132.795 277.84C132.795 275.6 133.235 273.613 134.115 271.88C135.022 270.147 136.235 268.813 137.755 267.88C139.302 266.947 141.022 266.48 142.915 266.48C144.568 266.48 146.008 266.813 147.235 267.48C148.488 268.147 149.488 268.987 150.235 270V266.84H155.875V289H150.235V285.76C149.515 286.8 148.515 287.667 147.235 288.36C145.982 289.027 144.528 289.36 142.875 289.36C141.008 289.36 139.302 288.88 137.755 287.92C136.235 286.96 135.022 285.613 134.115 283.88C133.235 282.12 132.795 280.107 132.795 277.84ZM150.235 277.92C150.235 276.56 149.968 275.4 149.435 274.44C148.902 273.453 148.182 272.707 147.275 272.2C146.368 271.667 145.395 271.4 144.355 271.4C143.315 271.4 142.355 271.653 141.475 272.16C140.595 272.667 139.875 273.413 139.315 274.4C138.782 275.36 138.515 276.507 138.515 277.84C138.515 279.173 138.782 280.347 139.315 281.36C139.875 282.347 140.595 283.107 141.475 283.64C142.382 284.173 143.342 284.44 144.355 284.44C145.395 284.44 146.368 284.187 147.275 283.68C148.182 283.147 148.902 282.4 149.435 281.44C149.968 280.453 150.235 279.28 150.235 277.92Z" fill="black"/>
<path d="M95.1928 259.4V289H89.5928V259.4H95.1928Z" fill="#FF414D"/>
<defs>
<filter id="filter0_d_138_27" x="0" y="0" width="418" height="418" filterUnits="userSpaceOnUse" color-interpolation-filters="sRGB">
<feFlood flood-opacity="0" result="BackgroundImageFix"/>
<feColorMatrix in="SourceAlpha" type="matrix" values="0 0 0 0 0 0 0 0 0 0 0 0 0 0 0 0 0 0 127 0" result="hardAlpha"/>
<feMorphology radius="2" operator="dilate" in="SourceAlpha" result="effect1_dropShadow_138_27"/>
<feOffset/>
<feGaussianBlur stdDeviation="15"/>
<feComposite in2="hardAlpha" operator="out"/>
<feColorMatrix type="matrix" values="0 0 0 0 0 0 0 0 0 0 0 0 0 0 0 0 0 0 0.25 0"/>
<feBlend mode="normal" in2="BackgroundImageFix" result="effect1_dropShadow_138_27"/>
<feBlend mode="normal" in="SourceGraphic" in2="effect1_dropShadow_138_27" result="shape"/>
</filter>
</defs>
</svg>
